<?xml version="1.0" standalone="no"?>
<!DOCTYPE svg PUBLIC "-//W3C//DTD SVG 20010904//EN"
 "http://www.w3.org/TR/2001/REC-SVG-20010904/DTD/svg10.dtd">
<svg version="1.0" xmlns="http://www.w3.org/2000/svg"
 width="1024.000000pt" height="682.000000pt" viewBox="0 0 1024.000000 682.000000"
 preserveAspectRatio="xMidYMid meet">
<metadata>
Created by potrace 1.15, written by Peter Selinger 2001-2017
</metadata>
<g transform="translate(0.000000,682.000000) scale(0.100000,-0.100000)"
fill="#000000" stroke="none">
<path d="M6098 6812 c-1 -5 -70 -50 -153 -101 -82 -51 -206 -128 -275 -171
-69 -44 -138 -88 -155 -98 -16 -10 -63 -39 -102 -65 -40 -26 -75 -47 -77 -47
-3 0 -20 -10 -39 -22 -18 -13 -72 -48 -120 -78 -48 -30 -152 -97 -230 -147
-78 -51 -144 -94 -147 -95 -3 -2 -2 -52 1 -113 6 -116 5 -117 13 57 1 15 7 33
14 40 9 9 12 0 12 -44 0 -31 4 -60 10 -63 12 -7 24 38 17 65 -3 11 -1 20 4 20
5 0 9 5 9 11 0 5 -4 7 -10 4 -5 -3 -10 -1 -10 4 0 6 5 11 10 11 6 0 15 10 20
23 l9 22 0 -22 c1 -13 6 -23 11 -23 6 0 10 -8 10 -17 0 -26 11 -8 20 32 8 34
7 35 -13 29 -19 -6 -18 -4 5 15 30 24 40 26 37 9 -4 -34 2 -41 15 -18 8 15 9
30 4 37 -6 8 -2 16 13 23 16 9 20 9 14 1 -4 -7 -2 -17 3 -24 6 -7 12 -25 15
-42 2 -16 5 -1 6 34 1 63 1 63 27 57 21 -6 25 -4 21 8 -8 20 13 33 24 15 5 -8
9 -9 10 -4 0 6 5 -1 9 -15 7 -21 8 -19 9 18 1 53 21 56 21 2 0 -22 5 -40 10
-40 6 0 10 16 10 35 0 47 20 45 21 -2 1 -34 2 -35 9 -13 4 14 8 44 9 67 1 41
21 73 21 34 0 -12 5 -21 10 -21 6 0 10 13 10 29 0 43 15 45 18 3 1 -20 7 -41
13 -47 7 -7 10 5 8 39 -2 28 1 51 7 53 6 2 9 -8 6 -26 -5 -33 14 -51 23 -21 3
11 4 23 2 27 -3 5 -1 17 4 28 5 15 8 7 8 -27 1 -26 6 -50 11 -53 6 -4 10 6 10
23 0 44 11 92 21 92 5 0 7 -11 3 -24 -5 -21 -2 -24 20 -22 24 1 26 4 27 51 1
62 17 34 19 -35 2 -42 3 -43 10 -15 4 17 9 50 10 75 2 36 3 40 9 20 4 -15 10
-20 14 -13 4 6 4 18 1 26 -3 8 -1 18 5 22 7 4 11 -6 11 -27 0 -18 5 -40 10
-48 7 -11 10 -1 10 35 0 47 12 75 32 75 4 0 8 -20 8 -45 0 -25 5 -45 10 -45 6
0 10 15 10 34 0 46 18 56 23 14 2 -21 4 -11 5 25 2 43 6 57 17 57 8 0 15 5 15
10 0 6 4 10 8 10 4 0 6 -16 4 -36 -3 -26 -1 -35 7 -30 6 4 11 20 11 37 0 31
19 42 21 12 0 -11 3 -13 6 -5 2 6 8 10 13 7 4 -3 10 6 12 20 3 14 1 25 -3 25
-5 0 -9 -4 -9 -10 0 -5 -7 -10 -17 -10 -14 0 -14 2 2 20 34 37 45 26 47 -47
l2 -68 6 75 c5 67 7 72 17 50 11 -24 12 -24 12 13 1 20 6 37 12 37 5 0 8 -4 4
-9 -3 -5 -1 -12 5 -16 5 -3 10 3 10 14 0 31 15 25 18 -6 4 -44 12 -39 12 8 0
41 3 46 44 72 24 15 48 27 55 27 6 0 11 5 11 10 0 14 27 12 34 -2 3 -7 5 -4 3
7 -3 26 42 52 56 33 6 -9 7 -8 3 4 -3 12 8 25 43 46 47 29 51 30 170 28 66 0
121 2 121 7 0 10 -298 9 -302 -1z"/>
<path d="M6648 6813 c24 -5 31 -23 8 -23 -8 0 -16 -5 -18 -12 -2 -6 -15 -13
-29 -15 -13 -2 -25 -8 -27 -13 -2 -6 -10 -10 -17 -10 -7 0 -15 -7 -19 -15 -3
-8 -10 -15 -16 -15 -6 0 -36 -16 -66 -35 -30 -19 -57 -35 -60 -35 -3 0 -24
-12 -47 -27 -66 -43 -79 -51 -124 -72 -24 -11 -43 -25 -43 -31 0 -6 -4 -9 -9
-6 -5 3 -20 -4 -35 -15 -14 -11 -26 -18 -26 -15 0 4 -17 -4 -37 -17 -21 -12
-49 -28 -63 -35 -14 -7 -56 -31 -95 -52 -38 -21 -90 -49 -115 -62 -25 -13 -49
-26 -55 -31 -19 -14 -80 -52 -107 -66 -16 -8 -28 -18 -28 -23 0 -4 -6 -8 -14
-8 -17 0 -80 -32 -84 -42 -2 -5 -10 -8 -18 -8 -8 0 -14 -4 -14 -10 0 -5 -3 -9
-7 -8 -5 1 -36 -14 -71 -35 -35 -20 -65 -37 -68 -37 -3 0 -10 -5 -17 -10 -20
-17 -102 -70 -108 -70 -4 0 -53 -29 -110 -65 -57 -36 -109 -65 -115 -65 -6 0
-17 -7 -24 -15 -7 -8 -21 -15 -31 -15 -10 0 -22 -6 -26 -13 -4 -7 -28 -23 -52
-35 -33 -18 -46 -20 -57 -11 -11 9 -14 9 -14 -1 0 -6 9 -14 20 -17 20 -5 25
-19 22 -56 -1 -10 2 -26 8 -35 8 -15 9 -14 10 6 0 12 6 41 13 63 9 32 18 42
40 46 15 3 27 11 27 18 0 19 39 7 73 -22 16 -12 35 -23 43 -23 8 0 14 -7 14
-16 0 -10 -5 -14 -16 -10 -8 3 -12 2 -9 -3 3 -6 -2 -14 -11 -19 -9 -5 -15 -14
-13 -20 4 -12 29 0 387 183 l212 109 0 93 c0 55 4 93 10 93 6 0 10 -33 10 -80
0 -66 3 -80 16 -80 14 0 695 342 722 363 8 6 12 37 12 87 l0 78 58 33 c31 19
64 37 72 42 8 4 38 21 65 37 28 17 61 36 75 43 14 6 30 18 36 26 6 8 16 11 22
7 7 -4 12 -1 12 8 0 8 -5 16 -12 18 -9 3 -7 14 5 41 22 46 33 47 41 2 4 -19
11 -35 16 -35 13 0 23 45 15 69 -8 27 14 28 43 1 31 -29 50 -25 22 5 -22 24
-29 25 -124 24 -56 -1 -91 -4 -78 -6z"/>
<path d="M7295 6810 c-3 -5 -59 -36 -123 -69 -64 -33 -148 -76 -187 -97 -38
-20 -185 -95 -325 -166 -140 -72 -261 -136 -269 -144 -13 -11 -12 -14 1 -19 9
-4 25 -2 36 4 19 10 20 6 24 -82 4 -87 6 -94 36 -127 38 -42 40 -63 7 -78 -14
-7 -25 -20 -25 -31 0 -11 -4 -22 -9 -25 -4 -3 -9 -35 -10 -71 -1 -59 1 -65 19
-65 12 0 39 9 61 20 33 17 38 24 33 44 -3 13 -1 27 5 30 7 5 11 -2 11 -17 0
-23 2 -24 34 -17 60 13 80 35 92 98 l11 57 2 -53 c1 -49 3 -53 24 -50 20 3 22
9 25 82 2 61 7 83 20 92 9 8 23 11 30 9 6 -2 12 -1 12 4 0 5 8 11 18 15 9 3
23 9 30 12 9 4 12 -13 12 -70 0 -42 4 -76 8 -76 25 0 127 50 127 62 0 8 8 22
17 31 15 16 17 16 20 -3 2 -12 8 -19 13 -18 6 2 11 103 12 272 2 242 5 289 17
275 2 -2 6 -121 10 -263 3 -143 8 -261 11 -264 4 -5 165 59 228 90 26 13 37
25 37 41 0 12 0 142 0 290 0 177 3 267 10 267 6 0 10 -29 10 -72 0 -43 6 -84
14 -100 24 -46 31 -150 12 -186 -17 -32 -24 -202 -8 -202 4 0 30 9 57 19 43
16 51 23 56 52 6 31 6 32 8 7 1 -25 21 -42 21 -18 0 6 3 9 8 9 28 -5 42 3 43
24 0 21 1 21 9 2 8 -19 9 -19 9 -1 1 14 4 16 14 8 8 -7 18 -7 27 -2 11 7 13
29 11 99 -2 61 1 91 8 91 7 0 12 -24 13 -57 l1 -58 7 50 c7 49 7 48 8 -22 2
-86 6 -88 97 -44 44 21 56 30 43 36 -9 3 -34 -2 -57 -14 l-42 -20 3 85 3 85
78 35 c43 19 80 34 82 34 11 0 4 -157 -7 -168 -6 -6 -9 -15 -5 -18 10 -10 57
5 57 19 0 14 43 57 57 57 4 0 17 11 27 25 10 13 22 22 27 19 5 -3 9 0 9 7 0 7
3 9 7 6 3 -4 0 -18 -7 -32 -20 -37 -2 -49 38 -24 30 18 33 23 27 52 -4 18 -9
34 -11 36 -6 7 -70 -28 -114 -63 -25 -20 -48 -36 -52 -36 -5 0 -8 34 -8 75 l0
76 63 28 c92 41 107 45 107 27 0 -23 19 -30 46 -15 15 8 24 21 24 37 0 49 15
10 16 -41 2 -119 4 -127 19 -127 13 0 15 20 15 120 l0 120 -89 0 c-87 0 -89 0
-127 -35 -21 -19 -48 -35 -60 -35 -13 0 -59 -16 -103 -35 -43 -19 -87 -35 -97
-35 -27 0 97 114 138 127 25 8 -51 11 -299 12 -207 1 -334 -3 -338 -9z m-375
-318 c0 -4 -6 -14 -12 -21 -10 -11 -10 -14 0 -18 14 -5 17 -43 3 -43 -5 0 -16
-6 -23 -12 -7 -7 -29 -19 -48 -26 -29 -10 -37 -10 -46 3 -17 23 -66 38 -76 23
-5 -9 -8 -10 -8 -1 0 7 16 20 35 29 19 9 35 20 35 25 0 18 66 49 103 49 20 0
37 -4 37 -8z m142 -283 c3 -35 -1 -46 -29 -77 -32 -34 -81 -72 -95 -72 -11 0
4 133 16 146 6 6 32 18 56 27 25 8 46 16 46 16 1 1 4 -17 6 -40z"/>
<path d="M8382 6741 c1 -96 5 -105 41 -86 15 7 27 11 27 8 0 -3 6 -1 13 4 6 5
31 15 53 22 38 12 42 17 47 52 9 70 2 79 -62 79 l-57 0 0 -35 c0 -19 6 -37 13
-39 7 -3 13 -10 13 -16 0 -5 -9 -2 -20 7 -12 11 -20 30 -20 50 0 28 -3 33 -25
33 -24 0 -24 -1 -23 -79z"/>
<path d="M9234 6806 c-11 -8 -45 -25 -75 -36 -30 -12 -76 -31 -104 -42 -27
-11 -63 -26 -80 -33 -33 -14 -382 -155 -535 -215 -52 -21 -156 -62 -230 -93
-223 -90 -454 -182 -655 -260 -264 -103 -342 -133 -585 -232 -146 -58 -318
-126 -383 -151 -163 -61 -243 -103 -167 -88 33 7 35 2 43 -91 5 -44 10 -54 61
-102 31 -29 61 -53 67 -53 24 0 -11 -27 -52 -40 -23 -8 -47 -23 -55 -35 -16
-25 -27 -152 -13 -161 5 -3 25 0 44 7 35 13 35 13 35 74 -1 53 -2 58 -14 42
-14 -18 -15 -17 -21 3 -4 12 -2 27 4 33 8 8 11 8 11 -1 0 -7 5 -12 10 -12 6 0
10 7 10 15 0 8 6 15 13 15 9 0 11 -19 9 -74 l-4 -74 39 9 c21 5 42 9 46 9 5 0
6 9 2 19 -3 11 -1 22 5 26 6 3 10 -3 10 -15 0 -19 4 -21 33 -15 17 4 46 14 62
23 17 9 37 16 45 18 12 1 103 26 180 49 8 2 32 9 53 14 21 5 42 12 45 16 8 8
4 369 -5 433 -3 23 -9 42 -14 42 -15 0 -10 27 6 34 9 3 15 18 15 36 0 31 14
41 23 16 3 -8 6 -130 7 -272 0 -142 5 -263 9 -267 8 -8 119 20 226 57 l40 14
-4 290 c-2 193 0 292 7 296 16 10 22 -6 29 -91 3 -43 11 -81 16 -85 14 -9 15
-227 1 -236 -14 -9 -15 -145 -1 -154 6 -3 23 0 38 8 16 8 37 14 48 14 11 0 23
5 26 10 4 6 11 8 16 4 5 -3 15 -1 22 4 7 5 24 12 38 15 22 6 26 11 23 37 -2
17 1 30 7 30 6 0 9 -9 6 -19 -2 -10 -1 -25 4 -32 6 -9 9 -1 10 26 0 32 2 36 9
20 10 -23 10 -23 13 90 2 54 4 60 25 63 21 3 22 0 22 -62 0 -54 -3 -64 -15
-60 -21 8 -19 -13 3 -25 16 -10 16 -10 0 -11 -10 0 -18 -5 -18 -10 0 -19 27
-21 65 -6 33 14 35 17 22 31 -9 8 -20 15 -26 15 -7 0 -11 28 -11 75 0 71 1 75
25 81 14 3 25 10 25 14 0 5 -11 7 -25 5 -20 -2 -25 2 -25 19 0 12 9 28 20 36
11 8 20 20 20 26 0 6 15 18 33 26 57 26 98 41 101 37 4 -4 10 -237 7 -265 -1
-6 -23 -14 -51 -18 -54 -7 -68 -18 -48 -40 11 -12 15 -12 29 0 9 8 33 16 52
17 20 2 39 6 44 10 4 5 8 51 8 104 l0 95 83 26 c61 19 85 23 91 14 5 -9 6 -53
2 -104 -1 -5 -5 -8 -11 -8 -5 0 -18 -7 -27 -15 -10 -8 -27 -21 -38 -29 -11 -8
-17 -18 -13 -21 4 -4 14 0 23 9 21 21 35 20 36 -1 1 -10 4 -4 8 12 7 34 26 36
26 2 0 -27 45 -36 68 -13 9 9 23 13 31 10 14 -5 16 9 16 111 l0 117 -45 -6
c-41 -6 -45 -5 -45 15 0 15 5 19 15 15 9 -3 15 0 15 10 0 8 14 20 31 26 l32
11 -8 141 c-4 78 -7 148 -7 156 0 21 10 61 17 68 6 6 94 42 96 39 0 -1 4 -51
9 -112 8 -113 36 -206 70 -232 8 -7 11 -13 6 -13 -5 0 -3 -6 3 -14 10 -12 7
-17 -16 -28 -21 -10 -29 -22 -31 -45 -2 -17 -9 -37 -17 -43 -12 -10 -12 -15 0
-33 14 -22 15 -50 2 -63 -4 -4 -7 -22 -7 -39 0 -35 20 -42 55 -19 11 8 34 14
52 14 17 0 35 5 38 10 3 6 15 10 26 10 10 0 19 4 19 9 0 5 6 9 13 8 42 -1 42
-1 39 112 -4 107 -3 109 20 117 43 15 67 12 74 -9 4 -12 1 -23 -7 -28 -11 -7
-12 -12 -1 -29 6 -11 11 -32 11 -47 -1 -25 -2 -24 -8 7 -7 31 -8 28 -12 -28
-4 -62 6 -87 14 -34 l4 27 2 -27 c0 -18 7 -28 16 -28 12 0 15 20 15 119 l0
119 33 12 c17 6 52 18 77 27 25 8 50 19 55 23 6 4 22 10 37 14 23 5 27 2 33
-24 9 -43 35 -39 35 5 0 40 14 50 99 72 31 7 61 15 66 16 6 1 15 6 22 10 6 4
14 1 17 -5 3 -9 8 -8 16 5 26 40 32 16 29 -108 -2 -69 -3 -125 -3 -125 1 0 19
8 40 17 22 9 43 16 47 15 12 -3 49 19 43 25 -7 7 13 33 25 33 5 0 9 -9 9 -20
0 -11 -3 -20 -7 -20 -5 0 -8 -44 -8 -97 l0 -98 -80 -27 c-44 -15 -119 -38
-167 -52 -49 -14 -125 -37 -170 -50 -165 -48 -554 -159 -988 -281 -151 -42
-328 -92 -393 -111 -64 -19 -143 -41 -175 -48 -31 -8 -102 -28 -157 -44 -155
-46 -431 -126 -635 -182 -202 -57 -308 -93 -253 -87 l32 3 6 -65 c7 -68 24
-121 38 -121 5 0 20 -14 34 -30 13 -17 29 -28 34 -24 5 3 9 -4 9 -15 0 -14 5
-19 15 -15 8 4 15 2 15 -4 0 -5 -26 -16 -57 -24 -49 -12 -58 -17 -65 -43 -16
-55 -18 -86 -5 -79 9 5 9 3 0 -7 -17 -17 -16 -54 0 -68 10 -8 28 -7 68 3 30 8
79 17 109 21 30 4 84 14 120 22 36 8 126 25 200 37 l135 22 -2 90 c-1 49 -2
148 -2 219 -1 137 -8 195 -22 195 -5 0 -6 -6 -3 -13 5 -15 -107 -55 -228 -82
-35 -8 -81 -19 -103 -24 -49 -13 -202 -14 -209 -2 -3 4 29 18 72 30 42 12 113
33 157 46 44 14 91 27 105 29 14 3 61 14 105 25 44 11 88 21 98 21 11 0 21 9
24 20 3 12 11 19 17 17 8 -3 12 -86 14 -277 2 -151 5 -276 8 -279 5 -5 256 38
263 45 3 3 4 137 2 299 -1 208 1 295 9 295 15 0 19 -13 31 -110 13 -98 15
-223 5 -365 -8 -120 -13 -116 129 -85 50 10 137 28 195 38 372 69 410 78 410
89 0 7 -7 10 -16 6 -10 -4 -15 -1 -14 8 1 8 2 20 1 27 -2 19 -31 -12 -31 -32
0 -9 -4 -16 -10 -16 -5 0 -10 9 -10 19 0 11 5 23 10 26 15 10 12 36 -7 50 -26
19 -53 7 -53 -24 0 -25 -31 -57 -44 -44 -9 9 14 44 25 38 5 -4 9 4 9 17 0 17
-3 19 -9 9 -15 -24 -31 -1 -31 44 0 41 3 46 33 58 18 8 59 17 91 21 51 7 58 6
53 -8 -4 -10 -1 -16 8 -16 8 0 15 9 15 20 0 11 7 20 15 20 8 0 15 -8 15 -17 0
-15 2 -14 15 3 16 21 15 24 19 -71 2 -66 -2 -88 -14 -80 -5 3 -7 30 -5 60 3
32 1 55 -5 55 -6 0 -10 -4 -10 -9 0 -5 -8 -8 -17 -7 -16 1 -18 -10 -21 -81
l-3 -83 48 7 c26 3 50 7 52 9 5 4 3 201 -2 229 -4 23 -41 32 -62 15 -19 -16
-28 4 -23 52 3 36 21 42 26 8 2 -11 8 -20 14 -20 5 0 7 7 4 16 -3 8 -2 12 4 9
6 -3 10 3 10 14 0 11 8 24 17 30 15 8 17 23 15 100 -2 50 -6 111 -11 134 -6
34 -4 48 8 63 16 19 88 47 101 39 4 -3 8 -42 9 -87 1 -46 5 -94 8 -107 7 -30
63 -140 63 -126 1 6 7 -5 16 -24 16 -38 14 -43 -19 -48 -29 -5 -39 -17 -39
-47 0 -14 -6 -30 -13 -36 -8 -6 -10 -35 -7 -92 2 -46 6 -85 8 -87 6 -6 164 20
394 65 96 19 238 46 315 60 77 14 149 28 160 30 187 36 171 43 174 -71 2 -91
1 -95 -21 -100 -62 -14 -231 -45 -298 -54 -41 -7 -104 -18 -140 -26 -36 -7
-155 -28 -265 -45 -208 -33 -384 -63 -470 -80 -27 -5 -90 -16 -140 -24 -49 -9
-184 -31 -300 -51 -115 -20 -250 -42 -300 -50 -109 -17 -339 -57 -495 -85 -63
-11 -130 -24 -149 -27 -23 -4 -29 -8 -19 -14 12 -7 154 9 241 27 l27 6 0 -281
c0 -170 4 -282 10 -286 16 -10 270 17 270 29 0 6 0 140 0 299 0 251 1 287 15
287 12 0 15 -13 16 -60 2 -80 2 -79 18 -89 14 -9 14 -20 -4 -394 -1 -21 1 -39
4 -41 6 -3 101 3 598 40 l242 17 3 236 c2 130 0 276 -4 325 -3 49 -4 95 -1
101 5 14 91 31 101 21 5 -5 18 -155 22 -241 0 -15 2 -17 9 -6 7 11 10 10 15
-6 8 -26 52 -84 58 -77 3 3 9 -7 12 -22 4 -15 2 -32 -3 -37 -8 -8 -11 -7 -11
4 0 9 -3 10 -8 3 -4 -7 -18 -14 -32 -15 -20 -3 -26 -10 -28 -37 -2 -18 -8 -30
-13 -27 -13 9 -11 -29 3 -43 7 -7 8 -12 2 -12 -13 0 -12 -143 1 -151 6 -3 46
-3 90 2 44 4 152 13 240 19 167 11 246 17 330 25 52 5 126 10 281 20 107 7
104 11 104 -117 l0 -77 -32 -5 c-18 -3 -76 -8 -128 -12 -301 -22 -305 -22
-135 -20 114 2 142 0 95 -6 -204 -24 -258 -29 -290 -29 -19 1 -80 1 -135 1
-123 -1 -119 17 5 23 47 2 13 2 -75 0 -88 -2 -230 -9 -315 -15 -85 -5 -213
-14 -285 -18 -78 -4 -106 -8 -70 -9 81 -3 46 -17 -66 -26 -46 -4 -89 -11 -95
-16 -6 -5 -24 -4 -43 2 -18 6 -57 9 -87 7 -31 -3 -49 -1 -42 3 17 12 -71 11
-375 -1 -138 -6 -272 -16 -297 -22 -25 -7 -56 -11 -70 -10 -18 1 -21 -1 -11
-7 10 -6 -10 -11 -60 -14 -41 -3 -85 -7 -99 -8 -14 -2 -70 -1 -125 1 -82 2
-92 4 -55 10 25 4 -11 5 -80 3 -69 -2 -141 -7 -160 -10 l-35 -6 30 -6 c29 -6
30 -9 40 -76 6 -39 13 -75 17 -81 4 -6 32 -23 63 -38 58 -27 55 -23 59 -103 1
-15 -10 -19 -63 -23 -75 -6 -73 -3 -75 -125 l-1 -80 30 -2 c145 -8 485 -23
543 -23 l73 0 -7 233 c-4 127 -7 239 -7 247 1 74 4 90 18 90 13 0 15 -38 15
-284 0 -218 3 -285 13 -288 6 -3 53 -6 102 -7 50 -2 108 -4 130 -5 l40 -1 3
298 c1 186 6 297 12 297 10 0 11 -6 15 -80 1 -19 6 -44 11 -55 11 -24 11 -189
0 -300 -14 -140 -13 -148 15 -155 14 -4 108 -10 209 -14 102 -3 244 -9 315
-12 299 -13 334 -12 317 10 -10 13 -10 641 -1 651 9 8 84 9 97 2 5 -4 12 -40
15 -82 4 -43 14 -89 24 -107 38 -65 43 -73 44 -63 2 19 29 -90 29 -117 0 -26
-3 -28 -40 -28 -28 0 -40 -4 -41 -15 -2 -21 -4 -29 -9 -40 -3 -5 -5 -57 -5
-114 0 -96 2 -104 20 -107 41 -7 378 -23 625 -29 140 -4 298 -11 350 -15 70
-7 97 -6 103 3 4 7 7 127 6 267 -2 443 -1 479 15 449 9 -19 15 -109 20 -345 6
-279 9 -353 15 -374 0 -3 13 -5 29 -6 15 0 142 -4 283 -8 154 -5 258 -5 262 0
3 6 7 131 8 279 1 149 4 287 7 308 5 43 27 50 37 10 7 -30 8 -640 1 -652 -3
-4 -6 -54 -7 -112 -1 -89 1 -104 15 -107 15 -3 16 87 16 1137 0 908 -3 1140
-12 1139 -17 -4 -20 179 -3 207 16 27 22 910 6 901 -12 -8 -13 -3 -11 107 1
66 -2 81 -21 105 l-21 27 7 -25 c8 -25 8 -221 0 -228 -9 -9 -231 -72 -250 -71
-14 0 -16 2 -5 6 8 4 20 12 27 18 9 10 6 15 -15 24 -19 9 -22 15 -13 20 11 7
11 9 1 13 -10 3 -9 10 3 29 20 31 29 77 14 82 -6 2 25 15 69 30 43 15 90 33
104 40 l25 13 3 257 2 257 31 -2 31 -2 -5 -234 c-3 -129 -3 -240 0 -248 3 -8
11 -14 19 -14 12 0 14 44 14 255 l0 255 -493 0 c-413 0 -496 -2 -513 -14z
m-70 -158 c-10 -33 -25 -50 -40 -44 -8 3 -13 2 -12 -2 1 -4 -2 -19 -6 -33 -7
-26 -58 -64 -70 -52 -3 3 -6 2 -6 -4 0 -16 -144 -63 -192 -62 -24 0 -50 0 -58
0 -8 -1 -35 1 -60 3 -25 2 -49 1 -55 -4 -5 -4 -30 -10 -55 -14 -42 -6 -44 -6
-25 8 11 9 26 16 33 16 7 0 20 4 30 9 9 4 31 15 47 23 17 8 58 25 92 38 35 12
84 38 110 56 27 19 59 34 73 34 14 0 59 11 100 24 97 31 103 31 94 4z m12
-218 c19 0 34 -3 34 -7 -1 -5 -28 -20 -60 -35 -54 -24 -78 -48 -49 -48 7 0 17
-8 24 -17 11 -14 15 -15 28 -4 9 7 20 10 26 7 5 -3 11 0 14 6 3 10 7 10 20 -1
10 -7 17 -10 17 -5 0 5 14 10 30 11 23 2 30 -2 30 -16 0 -14 -25 -28 -106 -60
-149 -59 -148 -59 -152 12 l-3 58 -32 -6 c-18 -4 -68 -18 -111 -31 -43 -14
-82 -22 -85 -18 -11 11 81 84 144 114 75 36 130 50 169 44 16 -2 44 -4 62 -4z
m-174 -172 c3 -24 3 -48 1 -54 -2 -5 -29 -18 -61 -28 -31 -10 -68 -22 -82 -27
-14 -5 -40 -13 -57 -18 -31 -9 -33 -8 -33 15 0 15 6 24 15 24 8 0 15 5 15 10
0 6 5 10 12 10 6 0 22 10 35 22 22 20 23 21 24 2 1 -11 4 -6 8 11 4 23 17 35
51 53 24 12 50 22 56 22 7 0 14 -19 16 -42z m-815 19 c-22 -9 -27 -16 -22 -34
4 -17 2 -21 -9 -17 -8 3 -20 -3 -27 -14 -8 -10 -23 -24 -34 -31 -19 -11 -18
-11 5 -6 l25 7 -22 -16 c-12 -9 -68 -35 -125 -59 -84 -34 -114 -42 -163 -41
-49 1 -55 0 -35 -8 15 -7 20 -12 12 -15 -7 -3 -25 0 -40 6 -48 18 -121 14
-179 -9 -13 -5 -23 -8 -23 -5 0 7 239 115 255 115 5 0 23 11 42 26 19 14 56
29 86 34 51 9 102 23 142 40 39 17 110 39 125 38 8 0 2 -5 -13 -11z m-57 -233
c11 -4 7 -10 -15 -21 -16 -8 -40 -24 -51 -35 -12 -11 -40 -21 -65 -23 -24 -2
-71 -13 -103 -24 -33 -12 -69 -21 -82 -21 -13 0 -26 -4 -29 -10 -3 -5 -11 -10
-17 -10 -5 0 5 12 22 28 18 15 48 40 66 55 52 44 136 73 202 69 31 -2 64 -5
72 -8z m2040 -36 c0 -9 3 -8 10 2 5 8 12 11 15 8 4 -4 9 -186 12 -405 3 -277
1 -393 -6 -383 -6 8 -11 11 -11 5 0 -5 -5 -3 -10 5 -8 12 -10 11 -10 -5 0 -12
4 -25 9 -30 8 -8 15 -147 12 -212 -1 -18 -190 -36 -226 -22 -18 7 -18 8 -2 8
22 1 17 26 -4 26 -8 0 -16 11 -18 25 -1 14 -8 28 -15 32 -6 5 -2 8 12 8 14 0
21 4 16 11 -3 6 -17 8 -33 4 l-26 -7 25 28 c22 24 23 26 5 21 l-20 -7 20 15
c12 9 30 14 43 10 13 -3 22 -1 22 6 0 8 15 10 48 6 27 -3 38 -2 27 2 l-20 8
20 6 c11 3 35 8 53 12 17 4 32 12 32 18 0 7 0 193 0 415 0 257 4 402 10 402 6
0 10 -6 10 -12z m-3132 -181 c-15 -10 -15 -12 0 -24 16 -11 16 -12 0 -13 -10
0 -15 -6 -13 -13 7 -16 -138 -83 -224 -103 -71 -16 -206 -25 -235 -14 -13 4
10 17 80 45 55 21 119 49 144 62 25 12 52 23 60 23 9 0 47 11 86 24 75 27 133
34 102 13z m2072 -142 c0 -3 -12 -10 -26 -15 -14 -6 -23 -14 -20 -19 3 -5 -1
-11 -9 -15 -9 -3 -12 -12 -8 -22 4 -12 3 -15 -6 -10 -6 4 -18 2 -26 -4 -36
-30 -156 -46 -139 -19 10 17 -55 9 -72 -8 -17 -17 -18 -17 -11 1 6 15 4 17
-10 11 -10 -4 -38 -11 -63 -15 -25 -4 -58 -12 -73 -19 -16 -6 -34 -8 -40 -4
-12 7 43 28 113 44 25 5 54 13 65 18 11 4 45 16 75 26 30 10 61 22 68 28 18
14 182 34 182 22z m-855 -234 c-3 -5 -20 -13 -38 -17 -17 -4 -26 -9 -19 -11
20 -7 14 -20 -12 -27 -14 -3 -31 -12 -38 -19 -16 -15 -70 -36 -128 -49 -25 -6
-49 -14 -55 -18 -5 -4 -35 -13 -65 -19 -154 -30 -163 -31 -176 -20 -7 6 -23 8
-34 4 -34 -11 -145 -16 -134 -6 10 9 103 39 204 66 36 9 84 26 107 36 23 10
52 19 64 19 26 0 186 35 249 55 53 16 83 19 75 6z m1006 -41 c5 0 9 -24 9 -53
l0 -53 -72 -17 c-91 -21 -105 -21 -111 1 -4 13 -5 11 -6 -5 -1 -16 -7 -23 -21
-23 -18 0 -20 7 -20 65 0 58 2 65 20 65 12 0 20 -7 20 -17 0 -14 3 -13 23 5
13 12 36 22 53 23 16 0 38 4 49 9 11 5 26 7 33 4 8 -2 18 -4 23 -4z m-272 -56
c7 -7 8 -92 1 -103 -5 -10 -164 -50 -197 -51 -9 0 -13 19 -13 61 0 61 0 61 26
56 16 -3 28 0 31 9 3 8 17 14 32 14 14 1 37 7 51 15 21 12 55 12 69 -1z m469
-105 c4 -86 -4 -126 -28 -132 -13 -3 -17 -11 -13 -26 3 -12 1 -21 -6 -21 -6 0
-11 10 -12 23 0 12 -3 31 -6 42 -4 11 -7 54 -7 95 -1 71 0 74 24 81 41 11 45
6 48 -62z m-202 -25 c-3 -26 -7 -47 -8 -49 -2 -1 -18 -7 -35 -14 -18 -8 -33
-17 -33 -21 0 -7 -45 -30 -60 -30 -5 0 -11 8 -13 18 -3 10 -5 6 -6 -10 -1 -31
-27 -39 -34 -10 -4 13 -5 11 -6 -5 0 -13 -5 -23 -11 -23 -6 0 -10 32 -10 75 0
66 2 75 18 75 10 0 23 -5 29 -11 8 -8 13 -5 18 10 4 14 18 22 43 26 20 4 42 8
47 10 6 2 23 4 39 4 28 1 28 0 22 -45z m-258 -87 c2 -45 -1 -77 -7 -77 -5 0
-12 10 -14 23 -3 17 -5 16 -6 -8 -1 -23 -3 -27 -11 -15 -8 13 -10 13 -10 -1 0
-23 -51 -33 -66 -13 -9 12 -13 8 -18 -18 -9 -44 -24 -25 -29 37 -3 47 -4 46
-6 -15 -1 -56 -3 -63 -15 -47 -7 9 -18 17 -25 17 -7 0 -11 27 -11 80 0 76 1
80 23 80 12 0 54 9 92 20 101 27 100 28 103 -63z m-818 -25 l0 -49 -75 -16
c-108 -24 -105 -25 -105 32 0 47 2 50 30 56 16 4 32 11 35 16 4 5 31 9 61 9
l54 0 0 -48z m569 -22 c-2 -73 -3 -75 -51 -71 -10 1 -18 -4 -18 -13 0 -9 -6
-16 -14 -16 -7 0 -18 -15 -24 -32 -11 -37 -10 -46 -12 95 -1 43 1 82 5 85 3 4
26 7 51 7 24 0 44 3 44 8 0 4 5 7 10 7 6 0 10 -28 9 -70z m-806 20 c14 0 17
-9 17 -50 0 -27 -3 -49 -7 -48 -5 1 -40 -6 -80 -15 -40 -9 -77 -17 -82 -17 -6
0 -11 20 -11 44 0 49 24 76 67 76 12 0 25 5 29 11 3 6 16 8 28 5 11 -3 29 -6
39 -6z m16 -182 c0 -50 -3 -67 -9 -53 -8 19 -9 19 -9 -2 -1 -13 -7 -23 -15
-23 -8 0 -16 -5 -18 -10 -2 -6 -28 -12 -58 -13 l-55 -1 -3 66 c-3 76 -10 71
112 92 22 3 42 9 45 11 10 10 11 3 10 -67z m2263 -83 c3 -38 6 -212 7 -386 2
-315 2 -316 -19 -322 -12 -3 -23 0 -25 6 -7 23 -16 742 -10 759 4 9 15 16 25
15 14 -1 18 -13 22 -72z m-1003 -101 c2 -2 -20 -4 -50 -5 -51 -1 -52 -1 -19
-10 19 -4 41 -6 48 -4 8 3 10 0 6 -6 -4 -7 -21 -9 -45 -5 -22 4 -39 2 -39 -3
0 -5 -21 -13 -47 -17 -27 -4 -59 -11 -73 -16 -13 -5 -85 -12 -160 -14 -74 -3
-163 -7 -197 -8 -103 -4 -72 10 62 28 69 9 151 24 183 33 31 9 93 18 137 20
44 3 84 8 89 13 8 8 95 3 105 -6z m-41 -137 c24 -7 42 -16 41 -22 -1 -5 -27
-16 -58 -22 -69 -16 -303 -42 -314 -36 -12 7 58 53 113 74 52 21 153 23 218 6z
m-913 -18 c4 -6 0 -9 -8 -7 -9 2 -16 -1 -16 -7 0 -5 -20 -13 -43 -16 -24 -4
-97 -18 -163 -32 -140 -30 -359 -49 -430 -38 -27 5 -39 9 -25 10 32 1 217 37
290 56 50 12 277 40 357 44 17 0 35 -4 38 -10z m1015 -173 c0 -81 -1 -84 -25
-88 -31 -6 -35 -2 -35 36 0 35 -16 25 -22 -13 -2 -19 -12 -27 -37 -34 -21 -5
-37 -5 -44 2 -5 5 -12 41 -15 79 l-5 70 47 7 c25 4 53 4 62 1 8 -3 25 1 37 9
12 8 25 15 29 15 5 0 8 -38 8 -84z m-1204 33 c47 -21 48 -22 24 -32 -25 -10
-210 -36 -264 -37 -28 0 -25 3 30 39 86 56 135 63 210 30z m934 -63 l0 -85
-57 -6 c-32 -4 -65 -7 -73 -8 -12 -2 -16 14 -20 76 -6 87 -4 98 14 91 6 -2 30
0 51 5 87 20 85 21 85 -73z m-837 -45 c4 0 7 -30 7 -66 l0 -64 -32 -5 c-18 -3
-52 -7 -74 -8 l-42 -3 -6 44 c-3 24 -6 56 -6 72 0 26 3 28 35 25 19 -1 40 1
47 5 10 6 29 6 71 0z m-243 -21 c9 -6 17 -5 22 3 4 7 7 -19 7 -58 0 -48 -3
-64 -9 -50 -8 19 -9 19 -9 -2 -1 -27 -23 -39 -78 -42 -42 -2 -43 -2 -43 29 0
18 -4 29 -10 25 -6 -4 -10 10 -10 35 0 37 3 42 33 55 37 17 76 19 97 5z m1241
-629 c25 -9 57 -24 70 -32 23 -16 23 -16 -31 -22 -114 -13 -346 -19 -370 -9
-24 9 -21 11 45 42 39 18 81 36 95 41 34 10 134 0 191 -20z m-1072 -45 c81
-41 71 -47 -99 -53 -127 -5 -216 6 -175 22 11 5 27 14 36 21 25 22 91 43 134
43 26 0 62 -12 104 -33z m1055 -82 c3 -8 10 -12 16 -9 6 4 10 -15 9 -52 l-1
-58 -12 35 -13 35 -7 -55 c-3 -30 -7 -71 -9 -90 -2 -30 -6 -35 -29 -38 l-28
-3 0 73 c0 40 -3 90 -6 110 -6 36 -5 39 27 53 43 18 46 18 53 -1z m-300 -15
c4 6 38 11 83 11 l76 0 -5 -65 c-5 -58 -26 -104 -41 -89 -3 3 -12 -3 -19 -15
-7 -12 -20 -21 -28 -21 -9 0 -11 -3 -5 -8 6 -4 11 -13 13 -19 3 -17 -65 -17
-82 0 -7 7 -16 51 -20 98 -7 85 -1 133 14 109 5 -9 9 -9 14 -1z m-885 -86 c-1
-100 -9 -127 -37 -131 -13 -2 -22 2 -22 10 0 11 -2 11 -9 0 -5 -8 -22 -12 -42
-10 l-34 3 -3 97 c-3 109 -9 102 91 107 l57 2 -1 -78z m220 18 l-2 -46 -7 40
-7 40 -3 -35 c-1 -19 -3 -58 -4 -87 -1 -56 -10 -78 -14 -35 -9 103 -22 122
-22 34 l0 -62 -44 0 c-30 0 -46 5 -50 15 -3 10 1 15 12 15 14 0 15 2 2 10 -10
6 -16 33 -20 80 -3 39 -3 74 -1 76 3 3 40 4 83 3 l78 -2 -1 -46z m-1275 22 c3
-10 2 -52 -2 -93 l-7 -75 -40 2 c-66 4 -66 5 -63 90 l3 76 30 4 c16 3 32 6 34
9 11 11 40 2 45 -13z"/>
<path d="M1 6062 c1 -169 5 -291 9 -272 5 30 7 25 11 -33 3 -50 1 -66 -8 -63
-9 4 -12 -235 -13 -1059 0 -1010 1 -1065 17 -1063 10 1 31 0 46 0 l28 -2 -1
-157 c-1 -123 -5 -163 -17 -182 -13 -20 -13 -25 -2 -32 10 -6 4 -10 -19 -15
-26 -5 -31 -10 -26 -23 4 -9 12 -35 18 -58 11 -45 20 -53 29 -29 3 8 -1 20 -9
26 -18 16 -18 28 0 46 11 11 16 11 19 1 6 -13 10 17 8 46 -1 9 4 17 13 17 10
0 13 6 10 15 -5 13 9 15 90 15 53 0 99 0 103 1 4 0 9 -4 11 -10 2 -6 -5 -11
-15 -11 -15 0 -16 -2 -3 -10 12 -7 13 -13 4 -28 -16 -25 5 -69 24 -50 7 7 12
8 12 4 0 -5 7 -3 15 4 12 10 13 15 4 21 -7 4 -15 16 -17 26 -7 27 -1 304 7
343 l6 33 80 -2 c44 -1 85 -7 90 -12 16 -16 13 -459 -3 -485 -12 -20 -10 -22
13 -28 14 -4 25 -12 25 -19 0 -9 -22 -13 -72 -15 -39 -1 -76 -6 -82 -12 -5 -5
-15 -10 -20 -10 -6 0 -4 5 4 10 10 7 -49 10 -187 8 l-203 -3 0 -1497 0 -1498
2507 0 2508 0 -69 48 c-37 26 -93 68 -125 93 -31 25 -75 58 -99 73 -23 15 -70
48 -104 74 -152 117 -200 152 -207 152 -4 0 -16 9 -27 21 -21 23 -280 223
-328 253 -17 10 -42 29 -56 41 -14 13 -45 40 -68 59 -35 29 -40 36 -23 36 11
0 24 -8 30 -17 5 -10 12 -15 16 -12 3 4 -2 14 -11 23 -22 23 -9 34 14 13 10
-10 22 -17 27 -17 9 0 127 -83 151 -107 9 -10 28 -23 41 -30 14 -7 66 -43 116
-81 97 -71 173 -122 182 -122 4 0 31 -20 62 -45 30 -25 58 -45 62 -45 4 0 23
-14 41 -30 19 -17 40 -28 47 -26 7 3 20 -5 28 -17 8 -12 30 -31 50 -41 23 -13
35 -26 35 -40 0 -13 10 -26 27 -33 33 -16 53 -17 53 -3 0 6 -4 10 -10 10 -5 0
-10 5 -10 11 0 7 10 9 26 5 14 -4 32 -2 39 4 10 8 19 8 34 -2 21 -13 29 -48
11 -48 -5 0 -10 8 -10 17 0 13 -3 14 -12 5 -9 -9 -8 -16 5 -30 9 -10 14 -22
10 -26 -4 -4 -2 -10 5 -14 8 -6 5 -15 -13 -34 l-23 -25 25 -21 c23 -19 28 -19
47 -6 11 7 35 14 53 14 18 0 33 5 33 10 0 6 5 10 12 10 9 0 9 -3 0 -12 -13
-13 3 -52 18 -43 4 3 16 -3 26 -12 16 -17 16 -18 -7 -24 -13 -4 926 -7 2086
-7 1174 0 2097 3 2082 8 -16 5 -36 6 -44 3 -12 -5 -14 -3 -8 7 6 10 3 12 -13
8 -13 -4 -20 -2 -16 4 3 5 -2 9 -12 8 -39 -4 -69 0 -57 8 8 5 -1 8 -22 8 -19
0 -42 8 -53 17 -10 9 -31 17 -46 17 -14 0 -29 7 -32 15 -4 8 -16 15 -28 15
-11 1 -32 7 -46 15 -29 17 -22 19 14 5 17 -6 26 -6 26 0 0 6 9 10 20 10 14 0
20 -6 18 -17 -2 -11 3 -18 12 -18 8 0 14 5 13 11 -4 21 55 2 280 -86 31 -13
57 -27 57 -31 0 -5 196 -9 435 -9 l435 0 -2 338 c-1 185 -3 315 -5 289 -4 -43
-6 -47 -25 -41 -14 4 -18 2 -14 -5 4 -6 2 -11 -3 -11 -6 0 -11 5 -11 11 0 5
-5 7 -10 4 -5 -3 -10 -2 -10 2 0 5 -10 10 -22 11 -13 1 -36 4 -53 6 -16 2 -42
4 -57 4 -17 1 -28 8 -28 16 0 10 -9 13 -29 10 -17 -3 -35 1 -43 9 -8 8 -34 15
-58 15 -27 1 -47 6 -52 15 -10 18 -41 12 -80 -15 -14 -10 -29 -18 -32 -18 -14
0 -56 53 -57 73 -1 12 -2 31 -3 42 -1 13 -7 19 -18 17 -12 -2 -18 4 -18 18 0
15 -6 20 -25 20 -15 0 -25 6 -25 14 0 24 -22 30 -37 11 -12 -18 -13 -17 -13 8
0 36 -25 35 -38 0 -10 -26 -10 -25 -11 17 -1 33 -4 41 -11 30 -5 -8 -10 -11
-10 -6 0 6 -7 1 -15 -10 -8 -10 -15 -14 -15 -9 0 6 -5 17 -10 25 -8 13 -11 12
-24 -5 -14 -18 -15 -18 -16 -2 0 9 -5 17 -11 17 -5 0 -7 5 -3 11 5 8 -4 10
-27 6 -70 -11 -74 -13 -74 -39 -1 -34 -22 -58 -50 -58 -17 0 -28 11 -43 40
-10 22 -21 37 -24 34 -3 -2 -5 6 -4 18 1 13 -2 29 -7 35 -10 13 -5 16 44 27
17 4 31 1 39 -9 7 -9 22 -12 40 -9 15 3 37 1 49 -5 17 -10 22 -9 27 3 4 11 13
12 37 5 17 -5 34 -14 38 -20 4 -7 9 -8 13 -1 6 11 59 2 166 -28 36 -10 77 -21
93 -24 18 -4 27 -13 27 -26 0 -13 7 -20 19 -20 10 0 29 -11 42 -25 13 -13 31
-25 40 -25 8 0 19 -4 25 -9 5 -5 23 -12 41 -16 37 -7 54 10 27 29 -11 8 -15
19 -10 31 5 15 15 17 58 13 29 -3 54 -11 56 -17 2 -6 9 -11 17 -11 7 0 18 -7
25 -15 7 -8 23 -15 35 -15 13 0 43 -8 67 -19 24 -10 58 -22 76 -26 l32 -7 0
181 c0 114 -4 181 -10 181 -5 0 -10 12 -10 26 0 14 4 23 10 19 6 -3 10 -1 10
4 0 6 -4 11 -10 11 -5 0 -10 16 -10 36 0 21 4 33 10 29 6 -3 10 -1 10 4 0 6
-4 11 -10 11 -5 0 -10 21 -10 46 0 27 4 43 10 39 6 -3 10 0 10 8 0 16 -21 27
-52 27 -21 0 -21 -3 -14 -132 4 -73 9 -144 11 -158 2 -14 4 -33 4 -42 1 -10 8
-18 16 -18 8 0 15 -4 15 -10 0 -11 -49 -4 -93 12 -30 12 -52 42 -42 59 4 5 -1
21 -10 35 -8 13 -15 30 -14 37 1 6 1 31 0 54 -1 40 -2 41 -42 48 -23 4 -49 15
-58 24 -22 22 -40 29 -125 47 -51 11 -72 11 -82 3 -8 -6 -24 -9 -36 -6 -21 6
-23 12 -23 79 l-1 72 -39 8 c-22 5 -47 11 -55 15 -8 3 -24 7 -35 8 -11 1 -38
5 -59 9 l-39 7 6 -152 c3 -83 10 -156 14 -160 5 -5 38 -14 74 -21 35 -6 67
-16 71 -21 13 -21 48 24 48 60 0 19 3 32 8 30 6 -4 7 -57 3 -114 -1 -7 -13
-13 -28 -14 l-28 -1 25 -8 c39 -12 87 -40 70 -40 -13 0 -13 -1 0 -10 8 -5 24
-7 35 -4 17 5 17 4 -3 -11 -28 -20 -61 -15 -282 42 -333 87 -464 120 -662 168
-148 37 -179 51 -147 70 6 4 8 14 5 21 -5 12 1 14 32 8 20 -4 57 -13 80 -21
24 -8 72 -19 105 -24 34 -6 77 -19 95 -30 18 -10 43 -19 55 -19 16 0 18 -3 9
-9 -15 -9 131 -41 191 -41 21 0 36 -4 33 -8 -3 -5 9 -9 27 -9 32 0 48 -4 80
-18 26 -11 33 1 8 15 -12 6 -21 19 -21 29 0 10 -9 26 -21 37 -17 15 -20 29
-18 79 1 33 6 68 11 77 5 12 5 18 -2 18 -5 0 -10 -5 -10 -11 0 -14 -56 -2 -95
21 -40 24 -130 42 -170 34 -40 -7 -53 9 -25 33 14 12 20 29 20 58 l0 40 -47 2
c-25 1 -49 6 -52 10 -3 4 -17 9 -31 9 -14 1 -38 4 -54 5 l-28 4 1 -90 c2 -67
-2 -95 -13 -110 -15 -19 -15 -19 -16 8 0 16 -4 26 -10 22 -10 -6 -40 45 -40
70 0 8 6 15 13 15 9 0 9 2 -1 9 -9 5 -11 17 -6 35 3 15 1 32 -5 40 -7 8 -11
18 -10 22 2 10 -6 35 -23 70 -6 12 -7 35 -4 51 5 23 2 33 -17 48 -70 60 -192
90 -330 82 -115 -6 -147 -18 -147 -52 0 -20 -5 -25 -25 -25 -16 0 -25 -6 -25
-15 0 -17 -16 -20 -25 -5 -4 6 -15 8 -25 5 -20 -7 -70 10 -70 24 0 6 22 7 53
4 l52 -5 2 35 c1 19 10 53 21 75 19 40 19 40 0 49 -18 8 -19 10 -4 22 11 9 16
10 16 2 0 -6 5 -11 10 -11 14 0 13 117 -2 122 -6 2 -9 12 -5 21 8 21 52 22 87
2 l25 -14 -34 -7 -33 -7 28 -13 c29 -12 28 -12 -10 -6 -37 5 -39 4 -33 -19 4
-13 7 -32 7 -41 0 -10 5 -18 10 -18 6 0 10 7 10 16 0 8 4 13 8 10 5 -3 31 2
58 10 27 8 59 13 72 11 16 -3 22 1 22 13 0 18 -27 30 -66 30 -30 0 -32 24 -29
300 3 216 5 235 22 241 16 7 15 8 -4 8 -20 1 -23 6 -23 45 0 38 3 45 23 49 12
2 -3 4 -33 4 -30 0 -42 -2 -27 -4 26 -4 28 -7 25 -46 -3 -42 -3 -42 -45 -45
-38 -3 -43 -1 -49 22 -8 31 -34 34 -41 5 -5 -19 -11 -21 -47 -16 l-41 6 -1
-195 c-1 -106 2 -194 6 -194 9 0 19 48 21 99 l2 36 7 -35 c4 -19 8 -30 9 -23
0 6 10 9 22 6 17 -5 20 -12 18 -52 -3 -46 -1 -49 39 -42 4 0 8 38 9 84 0 45 1
128 2 185 l1 102 40 0 40 0 0 -59 c0 -32 -3 -73 -6 -90 -6 -26 -10 -30 -30
-25 -18 5 -24 2 -24 -11 0 -12 7 -16 28 -13 l27 3 1 -86 c1 -48 5 -96 9 -109
4 -12 2 -27 -4 -33 -6 -6 -11 -18 -11 -27 0 -10 -11 -16 -35 -17 -29 -3 -35 0
-35 16 0 32 -11 51 -30 51 -14 0 -20 -9 -22 -32 -3 -29 -6 -33 -33 -33 -27 0
-30 3 -33 38 -5 57 -22 44 -22 -18 0 -62 -10 -68 -47 -29 l-24 26 3 289 3 289
-32 6 c-18 3 -38 4 -45 1 -7 -3 1 -6 19 -6 l31 -1 1 -137 c1 -116 -2 -140 -16
-156 -24 -26 -31 -151 -10 -175 15 -17 20 -38 18 -81 -1 -22 -4 -23 -38 -17
-21 3 -71 11 -112 16 -41 6 -77 12 -79 15 -3 3 -6 41 -7 85 0 43 -4 82 -8 86
-4 4 -7 -28 -7 -72 0 -43 -4 -84 -8 -91 -5 -8 -30 -8 -97 3 -49 7 -97 13 -105
13 -41 0 23 -17 108 -30 75 -10 92 -16 92 -30 0 -25 11 -49 21 -49 5 0 9 14 9
31 0 28 3 31 24 25 13 -3 53 -10 89 -15 79 -11 90 -17 82 -42 -5 -14 -2 -19
13 -19 11 0 23 -7 26 -16 6 -15 -1 -16 -60 -10 -60 6 -65 5 -62 -11 2 -10 10
-17 16 -15 7 1 12 -2 12 -7 0 -4 11 -6 25 -3 39 7 29 -15 -12 -29 -21 -6 -44
-16 -50 -22 -9 -6 -13 -6 -13 1 0 5 -14 15 -31 21 -39 13 -29 32 14 25 29 -5
30 -4 15 9 -10 8 -15 17 -11 20 3 4 -10 7 -30 7 -19 0 -44 3 -54 6 -11 4 -14
3 -7 -3 12 -8 18 -33 15 -62 -1 -19 -31 6 -31 26 0 11 -4 13 -12 6 -7 -6 -25
-13 -40 -17 -14 -3 -34 -9 -45 -12 -10 -3 0 6 22 20 31 20 35 26 19 26 -11 0
-25 5 -31 11 -9 9 -19 9 -41 0 -17 -7 -38 -11 -48 -10 -11 2 -25 0 -32 -4 -8
-6 -15 1 -22 18 -6 16 -17 26 -27 24 -31 -3 -44 1 -38 10 9 16 -17 61 -35 61
-10 0 -32 3 -49 6 -24 5 -31 3 -31 -10 0 -12 9 -16 35 -16 19 0 35 -4 35 -10
0 -10 -91 -40 -121 -40 -9 0 -19 -6 -22 -14 -6 -16 -11 -15 -132 11 -69 16
-80 21 -77 37 3 14 0 17 -13 12 -9 -3 -22 -6 -29 -6 -28 0 -45 -55 -47 -161
-2 -96 0 -110 24 -160 26 -51 31 -56 82 -72 91 -28 131 -47 117 -56 -10 -6
-10 -14 -2 -35 9 -24 7 -30 -12 -47 -13 -11 -42 -25 -65 -31 -24 -7 -43 -16
-43 -20 0 -4 -6 -8 -13 -8 -7 0 -22 -7 -33 -16 -18 -14 -18 -15 4 -4 30 15 41
6 12 -10 -11 -6 -31 -8 -43 -5 -16 5 -18 4 -8 -3 11 -8 10 -12 -7 -21 -11 -6
-30 -11 -41 -11 -10 0 -21 -4 -23 -8 -3 -8 -74 -46 -191 -104 -25 -13 -43 -16
-55 -10 -23 12 -90 14 -97 2 -3 -5 4 -17 15 -28 20 -19 20 -19 -22 -32 -24 -8
-50 -20 -59 -27 -8 -7 -24 -13 -35 -13 -11 0 -47 -14 -82 -31 -39 -19 -70 -28
-83 -24 -23 8 -79 -3 -79 -15 0 -13 23 -23 330 -140 108 -42 121 -53 82 -69
-26 -11 -37 -9 -93 17 -35 17 -75 33 -89 37 -14 3 -34 10 -45 15 -76 31 -178
71 -220 85 -85 30 -115 46 -115 65 0 13 -30 28 -122 63 -262 98 -332 135 -261
137 121 4 147 -2 358 -85 61 -24 121 -45 135 -47 38 -4 40 16 2 28 -17 5 -37
15 -44 22 -7 7 -19 12 -29 12 -9 0 -49 14 -89 30 -40 17 -78 30 -84 30 -6 0
-23 6 -38 14 -14 8 -42 19 -61 25 -20 7 -41 18 -47 26 -9 11 -5 15 24 21 20 3
52 3 72 -1 49 -9 213 -62 244 -79 14 -7 53 -19 88 -26 34 -7 65 -17 68 -21 7
-11 54 -12 54 -1 0 9 -104 51 -275 111 -145 51 -195 72 -195 82 0 4 26 10 58
14 49 5 73 1 172 -30 63 -21 149 -48 190 -61 41 -13 84 -24 96 -24 11 0 24 -4
30 -10 17 -17 107 -40 123 -31 11 7 -6 15 -60 30 -40 12 -83 25 -94 30 -11 4
-101 35 -200 68 -99 33 -194 66 -211 74 -28 11 -37 10 -75 -9 -28 -14 -47 -18
-53 -12 -13 13 -29 13 -21 0 3 -5 -7 -12 -22 -16 -64 -14 -93 -26 -93 -40 0
-8 -9 -14 -20 -14 -11 0 -20 -4 -20 -9 0 -12 -137 -81 -161 -81 -11 0 -38 12
-62 27 -23 15 -58 36 -77 46 -39 21 -112 69 -120 78 -3 4 -25 16 -50 29 -25
12 -65 37 -90 54 -50 36 -107 66 -124 66 -6 0 -20 -17 -31 -37 -10 -21 -20
-40 -22 -42 -1 -2 -17 7 -35 20 -31 22 -146 54 -157 44 -2 -3 3 -5 11 -5 9 0
21 -7 28 -15 15 -18 9 -19 -24 -4 -20 9 -29 9 -41 -1 -12 -10 -16 -9 -22 5 -4
12 0 23 13 33 13 10 15 16 6 19 -6 3 -9 9 -6 14 3 6 -1 21 -10 34 -20 30 -20
45 -1 45 8 0 15 6 15 14 0 7 12 16 27 19 16 3 36 9 45 12 12 5 20 1 25 -11 10
-27 53 -59 83 -61 14 -1 68 -3 120 -3 105 -2 120 -6 93 -25 -10 -7 -22 -10
-28 -7 -17 11 -55 13 -55 3 0 -5 9 -12 19 -16 11 -3 22 -12 25 -20 2 -7 14
-19 25 -25 18 -9 23 -7 33 15 6 14 18 25 26 25 8 0 21 8 28 18 11 15 31 17
157 17 l145 0 5 55 c4 32 2 56 -3 58 -6 2 -8 8 -5 12 3 5 6 25 7 45 1 26 4 33
12 25 6 -6 11 -47 11 -93 0 -45 5 -89 10 -99 10 -16 25 -14 98 17 13 5 16 3
11 -8 -4 -12 6 -17 48 -22 29 -4 73 -4 98 -1 56 7 90 -1 83 -20 -3 -8 -11 -14
-18 -14 -18 0 -30 -20 -18 -29 5 -3 12 -14 16 -23 10 -27 40 -22 72 12 l28 29
-24 11 c-22 10 -21 10 8 6 21 -4 67 6 130 27 82 27 93 32 65 35 -18 2 -30 8
-27 13 12 18 -7 9 -25 -13 -15 -19 -19 -20 -32 -8 -8 8 -17 23 -21 33 -6 15
-15 16 -79 11 -69 -7 -93 -17 -82 -36 3 -4 -4 -8 -14 -8 -11 0 -23 7 -26 16
-10 26 -7 154 4 174 8 16 7 18 -4 14 -16 -6 -32 29 -21 46 3 5 0 11 -7 11 -7
1 -24 3 -36 4 -23 2 -101 -31 -113 -49 -11 -15 -39 2 -39 24 0 12 4 19 9 16 5
-3 12 2 15 11 6 14 9 15 15 4 6 -9 11 -10 15 -2 4 6 26 11 50 11 23 0 46 4 52
9 14 13 70 21 80 11 5 -5 27 -5 52 1 24 5 46 8 50 5 4 -2 121 -7 260 -10 139
-4 259 -9 267 -12 11 -4 15 1 15 17 0 31 15 55 24 40 8 -13 65 -14 85 -2 8 5
11 16 7 26 -3 9 -1 26 5 37 l12 21 12 -23 c8 -15 15 -19 19 -11 4 6 0 18 -8
27 -9 8 -16 19 -16 23 0 5 -23 11 -50 15 -27 4 -50 11 -50 16 0 6 -7 10 -15
10 -23 0 -26 32 -23 278 2 127 0 232 -4 232 -5 0 -8 -18 -8 -40 l0 -40 -177 2
-178 3 1 38 c1 20 -3 37 -7 37 -5 0 -9 -18 -9 -40 0 -46 10 -43 -140 -40 -122
2 -148 11 -168 55 l-11 24 137 4 c75 1 20 3 -123 3 -143 0 -226 -1 -185 -3
106 -4 120 -9 120 -38 0 -13 -4 -26 -9 -30 -17 -10 -113 -8 -120 3 -3 6 -24 7
-51 3 -25 -3 -70 -6 -100 -6 l-55 0 1 43 c2 31 -2 42 -13 42 -10 0 -13 -10
-10 -40 3 -31 1 -40 -12 -41 -37 -3 -307 3 -313 8 -5 2 -8 17 -8 33 l0 29 133
4 c72 1 26 3 -103 3 -129 0 -193 -2 -142 -3 l92 -4 0 -34 0 -35 -99 0 c-54 0
-126 3 -160 6 l-61 7 0 38 c0 22 -4 39 -10 39 -6 0 -10 -30 -11 -67 -2 -177
-6 -461 -7 -487 -2 -25 -5 -28 -29 -23 -18 3 -31 0 -40 -11 -8 -11 -15 -13
-20 -7 -5 6 -20 16 -36 23 -15 6 -27 15 -26 19 1 5 1 24 0 43 -1 33 -3 35 -39
37 -24 2 -41 -3 -49 -14 -11 -15 -13 -15 -19 0 -3 10 -17 17 -30 17 l-24 0 0
200 c0 184 -1 200 -17 200 -11 0 -14 -3 -7 -8 8 -5 11 -67 11 -192 0 -185 -9
-244 -31 -215 -6 7 -24 15 -40 17 -50 5 -42 26 11 31 l48 3 -57 2 c-54 2 -57
1 -60 -23 -2 -14 -7 -25 -13 -25 -6 0 -10 61 -10 161 l0 160 22 -6 c13 -3 23
-1 23 4 0 5 -9 11 -20 13 -26 4 -27 22 -1 26 26 4 36 52 10 52 -11 0 -19 7
-19 15 0 8 6 15 13 15 8 0 7 4 -3 10 -10 6 -11 10 -2 10 6 0 12 6 12 14 0 9
-25 15 -92 20 -139 9 -276 8 -258 -4 8 -5 41 -10 73 -10 l57 0 0 -35 c0 -36 0
-36 -36 -29 -27 5 -35 4 -30 -5 4 -6 20 -11 37 -11 l29 0 0 -181 c0 -117 -3
-178 -10 -174 -5 3 -10 1 -10 -6 0 -8 -6 -6 -18 4 -24 22 -40 21 -102 -3 -28
-11 -56 -20 -63 -20 -9 0 -13 48 -15 195 l-3 195 48 2 48 1 -45 6 c-45 6 -45
6 -48 49 -4 53 -22 56 -22 3 0 -29 -5 -41 -17 -44 -17 -4 -17 -5 0 -6 16 -1
17 -18 17 -206 l0 -205 -25 0 c-23 0 -25 3 -26 53 0 28 -2 126 -4 217 -2 91
-4 183 -5 204 0 22 -3 37 -6 33 -3 -3 -8 -120 -10 -259 -3 -139 -7 -263 -9
-276 -4 -14 -13 -22 -25 -22 -19 0 -20 7 -20 247 0 135 -2 244 -4 242 -6 -7
-18 -294 -17 -413 1 -101 0 -107 -17 -95 -30 24 -33 33 -30 104 2 40 -1 72 -7
75 -6 3 -11 -22 -12 -65 -2 -62 -5 -73 -28 -93 l-26 -22 36 0 c47 0 76 -16 68
-36 -4 -11 -9 -12 -16 -5 -16 16 -37 13 -37 -4 0 -8 -9 -15 -20 -15 -14 0 -20
7 -20 21 0 19 -1 19 -16 4 -9 -9 -21 -14 -28 -12 -13 4 -15 15 -22 175 -6 109
-13 138 -28 114 -8 -14 -15 -252 -6 -247 13 8 23 -66 11 -78 -8 -8 -11 -1 -12
24 0 30 -1 31 -9 12 -7 -16 -14 -21 -26 -16 -13 5 -16 3 -11 -10 5 -14 0 -17
-32 -17 -40 0 -72 21 -85 54 -4 12 -2 23 6 28 10 8 10 11 1 15 -23 9 -14 31
14 36 29 5 55 -15 28 -21 -20 -4 -19 -22 0 -22 8 0 15 -7 15 -15 0 -9 6 -12
16 -8 15 6 15 7 -1 19 -14 11 -16 16 -6 28 8 10 9 16 1 21 -7 4 -8 29 -4 69 4
37 3 66 -3 69 -6 4 -10 -13 -10 -39 0 -59 -22 -85 -25 -28 0 21 0 49 1 61 1
13 -5 36 -13 51 -11 22 -12 32 -3 41 8 8 7 11 -3 11 -21 0 -45 -17 -45 -31 0
-16 -17 -21 -34 -10 -10 7 -11 13 -2 30 8 14 8 21 1 21 -5 0 -10 16 -10 35 0
32 2 35 19 25 14 -7 21 -6 25 3 3 6 5 3 5 -8 -3 -51 0 -55 27 -44 21 7 31 6
45 -7 17 -15 18 -15 24 9 4 14 4 36 -1 49 -6 21 -5 22 10 8 13 -10 16 -22 12
-43 -7 -35 9 -33 32 5 12 21 14 32 5 50 -26 58 -36 96 -35 131 1 20 -3 37 -8
37 -6 0 -10 5 -10 11 0 7 10 9 25 7 16 -4 30 2 42 15 18 19 17 20 -4 8 -32
-16 -60 -14 -61 7 0 9 4 37 10 62 l11 46 69 -4 69 -4 -7 26 c-3 14 -5 26 -3
26 2 0 18 -4 36 -9 22 -7 34 -6 37 2 5 9 8 9 12 0 8 -18 31 -16 38 3 10 27 7
36 -13 31 -16 -4 -21 2 -26 24 -4 16 -4 33 -1 38 4 5 91 10 204 10 442 3 906
18 950 32 24 8 72 8 165 0 166 -14 470 -30 652 -36 313 -8 539 -17 710 -26 98
-5 182 -6 185 -1 3 4 4 96 2 205 l-3 197 -102 0 c-131 0 -147 10 -68 40 47 17
61 27 61 43 0 20 -4 20 -207 13 -115 -3 -217 -8 -228 -10 -11 -3 -57 -5 -103
-5 -74 -1 -83 -3 -80 -18 2 -10 9 -17 16 -16 6 2 31 -3 54 -11 24 -8 57 -17
75 -21 29 -6 32 -4 36 22 2 15 4 -33 4 -107 1 -74 -1 -127 -4 -117 -2 9 -10
17 -17 17 -14 0 -30 56 -20 72 3 5 11 4 20 -3 12 -10 14 -3 14 41 l0 53 -62
-7 c-77 -9 -86 -10 -170 -8 -54 2 -68 5 -68 17 0 9 6 15 13 13 25 -6 77 24 77
45 0 20 -4 20 -143 14 -170 -8 -239 -16 -231 -28 3 -5 15 -9 27 -9 12 0 36 -9
52 -20 41 -27 51 -25 64 11 13 38 32 34 47 -11 6 -18 18 -39 28 -45 13 -10 16
-31 16 -121 0 -63 -4 -103 -9 -96 -6 10 -10 8 -15 -10 -7 -23 -8 -22 -16 7
-10 31 7 55 22 32 5 -8 8 -7 8 4 0 11 -12 18 -40 23 l-40 6 0 86 0 85 -47 -7
c-61 -9 -118 -9 -167 0 l-40 8 41 18 c24 11 40 24 40 35 0 17 -11 17 -160 11
-119 -5 -163 -10 -174 -21 -17 -17 -39 -19 -48 -5 -3 6 -27 10 -53 11 -43 1
-113 16 -85 18 14 1 13 42 -1 52 -15 11 86 28 209 35 66 3 124 9 130 12 5 4
28 7 50 8 22 0 100 4 173 9 l132 7 -2 144 -3 144 -37 0 c-21 0 -38 3 -38 6 0
11 42 44 57 44 7 0 13 7 13 16 0 12 -5 14 -17 9 -27 -12 -211 -18 -193 -7 8 6
34 13 58 17 23 4 42 10 42 14 0 4 -39 1 -87 -6 -49 -7 -124 -17 -168 -23 -81
-10 -195 -43 -130 -38 22 2 31 -2 33 -14 2 -13 -3 -18 -20 -18 -13 -1 -52 -3
-87 -6 -50 -5 -62 -3 -59 7 3 8 15 15 29 16 13 1 35 6 49 11 18 8 6 9 -47 5
l-72 -6 4 33 c2 18 8 36 12 40 10 10 132 40 161 40 11 0 24 5 27 10 4 6 11 8
16 5 5 -3 26 -1 46 5 21 6 90 19 153 30 63 11 147 26 185 33 l70 12 3 128 3
127 -41 -6 c-22 -4 -40 -3 -40 2 0 5 19 22 41 38 45 32 41 54 -7 35 -16 -6
-74 -13 -129 -15 l-100 -5 85 32 c47 17 106 35 133 38 26 4 53 13 59 19 23 23
36 12 43 -36 5 -39 12 -51 40 -70 19 -12 38 -22 42 -22 10 0 63 -52 63 -62 0
-4 -7 -8 -15 -8 -8 0 -39 -8 -70 -17 -60 -19 -57 -13 -57 -111 0 -24 2 -45 4
-48 3 -2 58 5 124 17 65 11 129 22 141 24 12 2 36 6 55 10 72 14 68 8 68 108
0 55 -4 87 -9 78 -5 -7 -11 -9 -14 -5 -8 13 4 64 14 64 5 0 9 10 9 23 l0 24
-62 -13 c-87 -19 -96 -18 -72 5 33 30 63 43 97 39 27 -3 33 1 35 21 4 27 -15
52 -26 35 -18 -28 -282 -61 -282 -35 0 5 30 17 68 27 37 9 72 21 77 25 6 4 35
10 65 14 30 4 67 13 83 20 l27 13 0 -76 c1 -191 6 -341 11 -347 4 -3 42 2 85
12 l79 18 3 223 c1 143 6 221 12 217 6 -3 10 -27 10 -53 0 -57 9 -94 21 -86 5
3 9 -25 9 -61 0 -38 -4 -64 -9 -60 -5 3 -12 -3 -15 -12 -8 -26 -10 -152 -3
-160 9 -9 311 48 319 61 4 5 4 14 1 20 -3 5 -5 31 -4 58 2 62 -17 63 -22 1
l-3 -48 -2 56 c-2 51 0 57 21 64 l22 8 -23 4 c-13 3 -26 11 -29 19 -8 21 6 64
21 64 7 0 18 11 24 25 11 24 10 25 -26 26 -32 0 -34 1 -14 9 25 11 47 52 39
73 -4 12 -15 12 -69 3 -34 -7 -90 -9 -123 -6 l-60 6 60 18 c33 9 82 26 109 37
27 10 54 19 61 19 7 0 15 7 19 15 7 20 6 20 -146 -21 -73 -20 -176 -47 -228
-60 -52 -14 -149 -41 -215 -59 -66 -19 -187 -52 -270 -73 -82 -22 -253 -68
-380 -102 -233 -63 -387 -101 -392 -96 -2 1 -6 16 -9 33 -5 28 -3 31 38 50 23
11 57 23 73 26 17 3 44 11 60 18 17 7 57 20 90 28 l60 16 5 185 5 185 14 -86
c8 -53 11 -105 6 -135 -4 -27 -8 -68 -10 -92 -3 -42 -2 -43 24 -38 42 10 204
57 226 66 11 5 32 11 48 14 l27 6 0 111 c0 102 -1 111 -17 104 -10 -3 -30 -9
-45 -12 -42 -8 -34 13 17 49 42 29 53 57 16 43 -47 -19 -117 -33 -126 -24 -15
15 -28 10 -21 -7 5 -13 2 -15 -11 -9 -10 4 -31 7 -48 6 -29 -2 -29 -1 -10 13
26 18 199 86 220 86 9 0 19 8 22 18 7 17 22 32 35 32 4 0 10 -22 14 -49 8 -60
9 -62 66 -95 82 -48 82 -61 1 -85 -52 -14 -63 -33 -63 -106 l0 -55 28 6 c15 4
34 10 42 14 8 4 33 11 55 15 22 4 48 11 58 17 18 9 18 10 1 29 -15 17 -16 22
-4 29 8 5 11 12 7 16 -4 4 -2 13 5 21 6 8 7 13 2 12 -24 -4 -26 3 -5 17 19 13
25 14 31 4 9 -15 7 -45 -5 -74 -6 -13 -3 -23 8 -31 13 -9 29 -8 79 8 35 10 69
21 76 23 15 4 16 70 1 80 -6 3 -9 20 -6 37 2 18 -1 37 -9 44 -16 16 -8 43 12
43 8 0 14 9 14 21 0 16 -4 19 -17 14 -40 -17 -123 -38 -129 -32 -3 3 11 22 31
41 29 29 45 36 76 36 35 0 39 2 39 26 0 21 -4 25 -17 21 -10 -4 -50 -18 -89
-31 -76 -27 -99 -31 -179 -28 -44 2 -47 3 -30 15 28 18 167 71 244 94 42 12
66 24 71 38 9 20 12 -90 11 -307 0 -80 2 -98 14 -98 23 0 139 32 149 41 5 5 8
106 7 229 -2 151 1 220 8 220 6 0 11 -12 11 -27 1 -44 11 -106 21 -125 12 -22
12 -100 0 -131 -5 -13 -11 -51 -14 -85 -5 -60 -4 -62 19 -62 13 0 41 6 61 14
21 8 52 17 68 20 17 4 63 16 103 28 l72 22 -6 47 c-4 30 -2 49 5 53 6 4 11 20
11 37 0 22 -5 29 -20 29 -29 0 -29 60 0 67 11 3 20 12 20 20 0 11 -7 13 -30 8
-31 -7 -44 10 -16 21 16 6 53 71 45 79 -3 3 -39 -1 -80 -9 -41 -8 -77 -12 -81
-10 -3 2 -25 5 -48 6 -49 2 -40 8 60 44 41 15 82 33 90 40 8 6 24 14 35 16 12
2 20 11 20 23 0 13 -6 19 -15 17 -38 -9 -538 -193 -605 -223 -24 -11 -395
-151 -730 -275 -286 -106 -291 -107 -280 -75 3 11 1 22 -5 26 -14 8 -13 25 2
25 6 0 19 6 27 14 9 7 42 21 73 31 31 9 66 26 76 36 11 10 22 15 26 12 3 -3
30 4 61 17 l55 22 1 182 c1 119 4 166 9 136 4 -25 12 -68 17 -97 6 -30 6 -58
1 -67 -5 -9 -11 -43 -14 -76 -5 -71 -1 -73 84 -33 31 15 59 27 62 28 16 3 59
19 85 30 17 7 44 17 60 22 29 9 30 12 32 74 1 35 5 77 9 93 7 29 7 29 -30 22
-21 -4 -44 -10 -53 -13 -23 -9 12 42 47 67 24 17 27 25 28 85 0 62 12 95 33
95 5 0 9 -17 9 -37 0 -50 19 -85 53 -101 16 -8 31 -20 34 -28 3 -8 11 -14 19
-14 28 0 13 -16 -36 -39 -28 -13 -53 -28 -56 -32 -11 -19 -16 -129 -5 -129 15
0 184 70 196 81 5 5 19 9 32 9 34 0 133 49 133 65 0 8 5 15 11 15 5 0 7 -4 4
-10 -3 -5 -1 -10 4 -10 6 0 11 13 11 30 0 21 -4 28 -14 24 -16 -6 -30 22 -15
31 5 4 7 11 4 16 -4 5 1 12 9 15 11 4 16 19 16 46 0 34 -3 39 -17 33 -123 -51
-148 -55 -110 -13 29 32 78 58 108 58 20 0 21 4 17 48 -3 26 -2 70 2 97 5 33
8 -20 9 -150 1 -110 5 -206 9 -212 9 -14 38 -8 115 26 l47 20 1 223 c1 127 4
212 9 198 4 -14 8 -44 9 -67 1 -23 5 -44 10 -47 14 -9 23 -117 10 -133 -7 -7
-13 -45 -15 -83 -3 -82 2 -84 81 -45 28 13 58 25 67 25 11 0 20 11 24 28 10
44 12 49 13 19 1 -25 4 -27 29 -21 15 4 46 15 70 26 l43 19 -2 65 c-1 35 1 67
4 71 4 3 7 24 7 46 l0 39 -36 -7 -36 -6 37 45 c21 26 35 53 33 63 -4 19 -7 19
-49 10 -20 -5 -28 -1 -41 21 -17 28 -16 28 17 55 19 15 40 27 48 27 8 0 17 10
21 23 8 31 7 47 -3 47 -9 0 -171 -77 -521 -247 -107 -53 -242 -118 -300 -145
-58 -28 -251 -123 -430 -210 -320 -157 -426 -205 -436 -195 -3 3 -6 12 -8 20
-1 8 -10 26 -20 41 -17 27 -17 28 3 33 34 9 24 19 -33 37 -54 17 -54 18 -49
52 5 30 3 34 -15 34 -11 0 -24 5 -27 10 -3 6 -17 10 -31 10 -31 0 -33 -34 -3
-50 19 -10 20 -10 10 9 -14 25 -14 31 -1 31 6 0 10 -7 10 -15 0 -8 5 -15 10
-15 6 0 10 -6 10 -14 0 -8 4 -16 8 -18 5 -1 6 -12 3 -24 -6 -20 -7 -20 -90 7
-46 14 -77 29 -70 32 9 4 7 6 -6 7 -11 1 -23 2 -27 1 -10 -1 -160 48 -180 59
-10 6 -26 10 -35 10 -15 0 -16 2 -3 10 13 8 11 11 -7 16 -13 4 -23 10 -23 15
0 12 17 11 25 -1 3 -5 21 -10 40 -10 19 0 36 -4 39 -9 3 -5 15 -7 26 -4 11 3
27 -1 36 -8 14 -11 18 -11 29 4 8 12 15 14 20 8 3 -6 16 -11 28 -12 12 0 0 -6
-28 -13 -42 -10 -46 -13 -28 -20 12 -4 31 -2 42 3 29 16 51 13 51 -6 0 -9 3
-14 6 -10 11 10 -6 57 -20 57 -19 0 -41 29 -41 53 0 16 -31 30 -195 87 -107
37 -267 93 -355 125 -290 103 -274 99 -297 79 -17 -16 -24 -16 -65 -6 -29 8
-49 9 -52 3 -4 -5 -51 -55 -105 -111 -87 -89 -103 -101 -127 -98 -23 4 -34 -3
-61 -35 -18 -21 -43 -50 -55 -64 -27 -29 -29 -61 -5 -79 16 -12 16 -14 -5 -29
-13 -9 -23 -22 -23 -29 0 -8 -7 -17 -16 -20 -9 -4 -14 -10 -10 -13 4 -4 19 5
34 20 64 63 94 87 107 87 8 0 15 6 15 13 1 17 74 93 120 123 22 15 37 30 34
35 -3 5 1 9 8 9 7 0 28 16 46 35 21 24 34 31 37 23 3 -7 6 -138 7 -291 l3
-278 24 -19 c23 -17 25 -23 22 -107 -1 -64 2 -97 13 -118 14 -26 14 -31 2 -41
-10 -7 -16 -33 -17 -82 -1 -40 0 -74 2 -76 3 -3 112 -24 214 -42 11 -2 40 -8
65 -14 25 -5 78 -16 118 -24 71 -13 74 -13 81 6 4 11 3 54 -1 96 -6 52 -5 103
3 157 21 140 28 115 22 -81 -4 -121 -2 -193 4 -197 5 -3 39 -11 76 -17 36 -5
73 -13 81 -16 14 -5 16 16 16 182 0 103 3 185 6 181 4 -3 7 -88 8 -189 l1
-183 90 -16 c50 -9 139 -26 200 -37 60 -11 113 -18 117 -16 6 4 5 44 -4 121
-1 6 -21 18 -45 25 -24 7 -43 18 -43 25 0 7 4 13 9 13 20 0 89 106 95 147 6
39 4 43 -16 48 -110 24 -426 105 -494 126 -17 5 -69 18 -115 28 -102 23 -299
75 -391 102 -38 11 -78 17 -92 13 -25 -6 -25 -6 -19 48 7 61 13 76 13 30 0
-24 3 -30 16 -25 11 4 12 9 5 16 -6 6 -11 14 -11 18 0 10 258 -38 310 -58 20
-8 43 -3 53 10 6 8 7 5 3 -6 -6 -20 13 -30 81 -42 l43 -7 -4 64 c-2 34 -7 83
-12 107 -5 31 -4 42 4 37 7 -4 12 9 15 36 2 24 4 -25 5 -108 l2 -150 75 -13
c42 -8 78 -18 81 -23 3 -4 10 -6 15 -2 5 3 15 1 22 -4 7 -5 19 -10 27 -10 17
-1 135 -31 165 -42 20 -8 99 -30 106 -30 2 0 5 20 6 45 2 58 5 62 47 57 33 -4
35 -6 30 -31 -12 -55 -16 -61 -27 -54 -19 12 -37 12 -34 0 2 -13 68 -46 80
-40 8 5 9 78 1 109 -4 14 -20 26 -45 34 -34 12 -53 30 -31 30 4 0 26 17 49 38
34 32 42 47 48 88 10 79 16 104 24 104 4 0 9 -21 10 -47 6 -122 8 -143 15
-150 4 -4 11 -1 15 6 7 10 13 11 30 2 16 -9 21 -21 21 -54 0 -44 24 -92 41
-82 5 4 9 -1 9 -9 0 -8 10 -18 22 -22 19 -6 17 -9 -23 -28 -44 -21 -44 -22
-49 -81 l-6 -60 -7 65 c-5 36 -9 91 -10 122 -2 57 -6 63 -39 52 -18 -5 -25
-68 -20 -173 3 -52 6 -60 25 -63 18 -2 21 -9 19 -33 -2 -16 -8 -34 -13 -39
-15 -16 -11 -24 21 -35 28 -9 30 -13 30 -60 0 -46 3 -52 30 -66 16 -8 38 -15
48 -15 11 0 25 -7 32 -15 10 -12 9 -16 -6 -21 -11 -3 -38 -14 -61 -25 -35 -15
-43 -24 -44 -46 -2 -27 -2 -27 -6 -3 -3 14 -10 31 -16 39 -7 8 -11 38 -9 72 4
54 2 59 -16 59 -31 0 -36 -15 -38 -117 -1 -79 1 -93 14 -93 13 0 12 -2 -3 -14
-17 -13 -17 -14 11 -28 29 -14 32 -22 19 -69 -5 -21 -3 -27 13 -31 15 -4 20
-17 25 -69 3 -35 10 -65 16 -67 6 -2 17 -10 25 -17 7 -8 16 -11 20 -8 3 4 6 1
6 -5 0 -7 12 -12 28 -12 37 0 11 -17 -40 -25 -45 -8 -57 -27 -59 -87 -2 -41
-2 -41 -11 17 -5 33 -11 89 -12 125 -2 43 -7 65 -14 64 -44 -4 -42 1 -42 -133
0 -127 0 -130 23 -133 23 -3 28 -30 13 -75 -6 -17 -3 -22 16 -25 21 -3 23 -9
26 -65 2 -45 6 -61 16 -57 15 6 68 -20 59 -29 -3 -4 3 -7 14 -7 11 0 26 -6 32
-14 14 -17 -5 -26 -57 -26 -53 0 -60 -9 -65 -75 l-3 -60 -2 63 c-2 56 -4 63
-26 72 -18 7 -23 14 -19 29 3 12 9 21 14 21 10 0 13 73 3 82 -3 3 -14 4 -25 1
-18 -5 -19 -13 -17 -142 3 -132 4 -136 26 -139 22 -3 30 -17 14 -24 -5 -1 -12
-15 -16 -30 -5 -23 -3 -28 13 -28 26 0 35 -15 41 -75 l5 -50 60 -19 c63 -20
75 -30 75 -58 0 -16 -11 -18 -88 -18 l-88 0 1 70 c1 61 -1 70 -17 70 -14 0
-18 -8 -18 -39 0 -72 -10 -101 -36 -101 -22 0 -23 4 -26 78 l-3 77 -187 9
c-173 8 -188 10 -188 27 0 20 -8 20 179 20 89 1 114 5 105 20 -3 5 -49 9 -102
9 -53 0 -124 4 -157 9 -91 14 -685 26 -685 13 0 -16 37 -22 204 -29 154 -6
198 -15 203 -41 2 -9 -46 -12 -201 -12 -223 0 -266 4 -266 28 0 8 -3 13 -6 9
-3 -3 -6 -52 -5 -107 2 -95 0 -102 -19 -107 -11 -3 -23 -15 -26 -27 -3 -13
-14 -22 -26 -23 -18 -2 -20 2 -14 38 6 36 -6 55 -17 27 -3 -7 -6 -3 -6 10 -1
13 -5 20 -11 17 -6 -3 -10 4 -10 17 0 13 -5 30 -10 38 -8 12 -10 10 -10 -9 0
-13 -3 -21 -8 -17 -8 9 -9 14 -11 56 -2 49 -21 34 -21 -17 0 -72 -10 -44 -15
41 -4 54 -2 76 7 76 18 0 0 14 -35 27 -27 9 -28 12 -9 12 12 1 22 6 22 11 0 6
-10 10 -22 10 -22 1 -21 2 5 16 15 8 27 16 27 17 0 1 -19 1 -42 -2 -38 -3 -41
-2 -29 13 11 13 11 17 -3 22 -10 4 -16 18 -16 40 0 19 -9 47 -19 62 -10 15
-21 47 -25 72 -3 25 -12 59 -20 75 -9 17 -16 38 -16 47 0 9 -4 19 -8 22 -12 7
-14 64 -2 71 5 3 10 15 10 26 0 14 -7 19 -25 19 -25 0 -33 14 -15 25 21 13 9
27 -17 21 -19 -4 -23 -4 -14 3 9 5 12 21 9 45 -2 19 0 37 5 39 6 2 4 33 -3 77
-15 84 -29 122 -30 77 0 -17 -4 -26 -10 -22 -6 4 -8 10 -6 14 3 4 1 21 -4 37
-8 27 -8 27 -9 5 -1 -23 -2 -23 -19 -8 -20 18 -52 13 -89 -13 -19 -14 -22 -26
-24 -120 -1 -75 1 -104 9 -103 7 2 12 -2 12 -7 0 -6 -4 -10 -9 -10 -5 0 -14
-21 -19 -47 l-11 -48 3 53 c2 32 0 48 -5 40 -5 -7 -9 -31 -10 -53 -1 -22 -3
-32 -6 -22 -5 19 -23 23 -23 5 0 -7 7 -25 14 -40 12 -22 12 -28 2 -28 -10 0
-15 -46 -20 -196 -4 -108 -11 -207 -16 -220 -9 -22 -15 -24 -71 -24 -58 0 -61
1 -72 29 -12 32 -36 44 -58 30 -8 -5 -11 -9 -7 -9 4 0 3 -14 -2 -31 -7 -23
-14 -417 -11 -542 1 -18 9 -19 114 -14 61 2 120 0 130 -5 15 -8 17 -29 17
-223 0 -137 -4 -215 -10 -215 -5 0 -10 -10 -10 -22 0 -21 0 -21 -19 -2 -10 10
-16 25 -13 32 3 8 -1 13 -9 12 -8 -1 -19 -2 -25 -1 -16 2 -64 48 -64 63 0 9
-3 9 -12 0 -16 -16 -28 -15 -28 3 0 8 -6 12 -13 9 -15 -5 -52 46 -82 115 -15
33 -16 46 -7 49 7 2 10 8 6 13 -3 5 0 9 6 9 6 0 8 5 5 10 -3 6 1 17 9 26 29
28 12 55 -35 57 -33 2 -34 1 -31 -35 3 -39 -2 -44 -26 -29 -16 9 -33 137 -30
218 2 58 -2 66 -23 58 -11 -4 -13 -28 -11 -118 5 -149 0 -159 -74 -173 -59
-10 -59 -10 -31 -24 32 -16 34 -37 7 -88 -34 -65 -36 -67 -54 -53 -14 12 -16
8 -16 -33 0 -44 -1 -46 -24 -40 -25 6 -50 -16 -26 -24 21 -7 -59 -31 -127 -38
-72 -8 -84 -24 -20 -25 l42 -1 -29 -12 c-42 -19 -63 -10 -69 29 -7 45 2 76 22
74 34 -3 41 2 41 31 0 29 -1 30 -50 30 -45 0 -50 -2 -56 -26 -4 -16 -12 -23
-20 -20 -8 3 -14 0 -14 -7 0 -7 12 -13 27 -12 21 0 27 -5 30 -27 4 -32 -9 -43
-37 -28 -19 10 -20 8 -20 -80 0 -49 -4 -90 -9 -90 -5 0 -8 41 -7 92 1 90 0 92
-24 99 l-25 7 28 1 c25 1 27 4 27 46 0 41 -2 45 -22 41 -13 -3 -46 -5 -74 -5
l-52 -1 3 -32 c2 -18 3 -39 4 -47 1 -9 11 -12 36 -9 46 5 44 -3 -5 -25 -37
-16 -40 -20 -40 -57 0 -33 3 -40 20 -40 11 0 20 -4 20 -10 0 -5 -10 -10 -22
-10 -20 0 -23 -5 -22 -38 0 -21 4 -44 9 -51 5 -10 4 -12 -3 -7 -8 5 -12 -1
-12 -14 0 -14 -4 -19 -12 -13 -7 4 -20 8 -28 8 -11 0 -15 12 -16 40 -1 65 -3
73 -21 78 -17 4 -17 5 0 6 13 1 17 10 17 41 0 39 -1 40 -36 40 -19 0 -42 7
-50 15 -13 12 -10 15 19 20 18 4 39 5 47 3 9 -2 15 10 18 42 2 25 9 49 15 53
7 5 -7 5 -31 2 -23 -4 -50 -8 -60 -9 -10 -2 -18 -13 -20 -28 -2 -19 -10 -27
-31 -31 -32 -7 -41 -37 -41 -139 0 -45 -3 -58 -15 -58 -12 0 -15 14 -15 63 0
34 -5 79 -9 101 -6 24 -6 48 0 64 l9 24 -57 -5 c-32 -4 -77 -6 -99 -7 l-41 0
9 -47 c5 -27 6 -77 2 -112 -4 -36 -7 -82 -7 -103 0 -21 -4 -38 -8 -38 -5 0 -9
8 -9 17 0 15 -2 15 -14 -2 -13 -18 -14 -17 -19 11 -7 37 -11 108 -12 203 l0
73 -130 -6 c-143 -7 -238 -15 -272 -22 -22 -4 -23 -1 -23 51 0 30 4 55 8 55 4
0 6 -16 4 -36 l-4 -36 33 7 c19 4 71 9 117 12 80 5 82 6 82 31 l0 25 -22 -20
c-38 -35 -92 2 -68 47 14 27 80 63 120 66 19 2 36 8 38 14 2 5 25 10 50 10 32
0 42 3 33 9 -9 6 42 10 140 12 172 3 261 1 268 -6 11 -12 -14 -16 -123 -22
-64 -3 -119 -10 -122 -15 -3 -4 -13 -8 -22 -8 -35 -1 -62 -36 -62 -79 0 -34 3
-41 20 -41 24 0 70 20 70 31 0 5 20 20 45 34 72 43 159 33 212 -24 10 -11 34
-21 53 -23 32 -3 35 -1 43 35 5 20 13 37 18 37 9 0 34 -42 30 -50 -1 -2 3 -6
10 -9 6 -2 9 1 5 7 -11 19 21 68 53 82 17 7 28 16 25 21 -7 11 -144 7 -144 -3
0 -5 -12 -8 -27 -7 -16 0 -21 3 -13 6 8 3 21 13 28 22 8 10 31 17 65 18 56 3
237 30 245 37 11 11 -102 18 -219 14 -71 -3 -132 -2 -135 3 -3 5 -28 6 -57 4
-73 -7 -379 -18 -454 -17 -46 0 -63 -3 -63 -13 0 -10 -29 -13 -130 -14 -84 -1
-130 2 -130 9 0 5 7 10 15 10 23 0 18 27 -6 33 -43 12 -6 25 89 31 54 4 103
11 110 15 8 5 12 77 15 246 1 132 6 245 9 251 5 7 36 9 88 6 55 -3 80 -1 80 7
0 7 -21 11 -57 11 -31 0 -54 3 -51 6 5 5 102 15 136 14 6 0 20 0 30 0 156 5
306 -2 323 -13 10 -8 16 -17 12 -20 -3 -4 -58 -7 -122 -8 -74 0 -109 -4 -96
-9 11 -5 36 -9 55 -9 l36 -1 3 -112 c1 -62 4 -115 7 -117 10 -11 13 12 15 117
l2 112 101 0 102 0 2 -92 c3 -106 12 -133 12 -36 l0 65 55 -1 c30 -1 55 -4 55
-8 0 -5 16 -8 35 -8 19 0 44 -6 55 -12 16 -10 25 -9 49 5 29 17 29 17 23 -5
-3 -15 -2 -19 7 -14 6 4 18 3 25 -3 17 -14 43 -5 49 17 3 11 5 8 6 -7 1 -20 4
-22 13 -13 7 7 21 12 32 12 11 0 28 7 38 17 17 16 18 10 18 -145 0 -98 -4
-162 -10 -162 -5 0 -12 23 -16 50 -5 41 -11 51 -30 56 -38 10 -44 -3 -44 -87
l0 -79 104 0 c60 0 108 4 111 10 4 6 -1 24 -9 42 -9 17 -16 44 -16 60 0 25 -3
28 -20 23 -15 -5 -18 -3 -14 8 3 8 1 18 -5 22 -14 8 -14 142 -1 150 6 4 10 -7
10 -26 0 -26 3 -30 19 -26 17 4 19 0 18 -37 -2 -33 1 -41 16 -40 12 1 17 -6
17 -25 0 -19 3 -22 9 -12 16 25 25 -34 14 -89 -11 -55 -9 -60 23 -60 21 0 23
5 26 78 2 42 6 84 9 92 3 8 4 12 2 7 -11 -19 -21 7 -12 31 6 15 15 54 20 87 6
32 15 65 21 72 13 16 38 156 29 164 -3 4 -37 4 -76 0 -58 -5 -64 -8 -39 -13
18 -4 38 -13 45 -20 8 -7 21 -13 29 -13 8 0 15 -7 15 -15 0 -13 -36 -15 -267
-15 -146 0 -264 -3 -261 -7 2 -5 41 -8 86 -8 100 0 136 -16 56 -24 -30 -3
-101 -4 -159 -3 -58 2 -117 0 -131 -4 -23 -6 -26 -4 -25 20 1 14 -5 32 -11 39
-9 10 -10 19 -3 33 12 21 30 26 30 7 0 -8 3 -9 8 -3 4 6 70 11 155 12 131 1
149 -1 159 -16 11 -19 26 -16 138 25 l35 13 -50 2 c-27 1 -68 2 -90 4 -22 1
-123 5 -225 9 -102 4 -193 10 -203 13 -15 4 -17 11 -11 36 4 18 6 64 6 102 -1
78 5 125 18 125 4 0 8 -46 9 -102 1 -57 5 -106 9 -110 4 -3 94 -8 200 -10
l194 -3 5 79 c5 90 -3 158 -17 136 -5 -8 -11 -12 -14 -10 -5 6 -10 58 -7 90
l2 25 12 -25 c10 -23 12 -19 15 39 2 35 1 65 -1 67 -2 2 -52 7 -110 10 -92 5
-106 4 -101 -9 6 -17 -11 -31 -26 -22 -8 5 -8 11 0 20 12 14 2 18 -93 30 -38
5 -47 10 -45 23 3 14 16 16 88 14 47 -1 106 -7 131 -13 25 -6 50 -9 55 -8 5 1
39 1 77 0 l67 -1 0 -40 c0 -22 3 -40 8 -40 4 0 37 -2 75 -5 l67 -4 0 44 0 44
-47 6 c-27 3 -78 12 -114 20 -37 8 -89 15 -115 15 -27 0 -101 7 -164 16 -63 9
-160 18 -215 20 -196 7 -545 39 -554 51 -3 4 -19 9 -36 10 -26 1 -341 34 -485
50 -25 3 -49 9 -54 13 -12 12 71 33 110 28 18 -2 30 0 27 5 -3 5 7 7 23 4 16
-4 79 -9 139 -12 61 -4 133 -12 160 -19 28 -7 55 -11 60 -9 6 2 10 26 9 53 -1
28 1 50 5 50 3 0 6 24 6 54 l0 54 -75 12 c-93 14 -106 21 -102 51 6 41 20 48
100 51 l77 3 -52 18 c-28 9 -60 17 -69 17 -35 0 -4 12 41 16 25 2 54 8 64 14
11 5 28 10 38 10 15 0 15 -2 3 -10 -21 -13 13 -24 140 -45 58 -10 109 -22 115
-27 9 -8 -10 -7 -190 7 -59 5 -87 4 -80 -2 14 -14 137 -43 213 -50 l63 -6 -1
-91 c-2 -50 -5 -117 -8 -150 l-5 -58 -66 5 c-36 3 -87 9 -113 13 l-48 7 -2 81
-2 81 -3 -79 c-3 -56 -8 -83 -19 -90 -13 -10 -11 -15 10 -34 15 -12 26 -17 26
-11 0 6 7 9 15 5 8 -3 15 -1 15 5 0 6 4 8 9 5 4 -3 93 -12 197 -21 104 -9 220
-22 258 -30 72 -15 89 -13 80 9 -4 11 -111 33 -136 28 -5 -1 -8 27 -8 62 0 62
0 63 25 58 20 -3 25 0 25 17 0 16 6 21 25 21 31 0 32 -8 3 -21 -22 -9 -22 -9
4 -6 17 3 29 -1 33 -11 6 -17 18 -9 21 16 4 22 -13 32 -53 32 -31 0 -33 2 -33
33 0 20 3 27 8 19 5 -7 19 -11 32 -9 20 3 27 13 36 53 10 43 12 46 15 19 1
-16 3 -43 4 -60 1 -19 6 -30 16 -30 11 0 13 -18 11 -97 -4 -104 -2 -109 52
-114 17 -1 103 -10 190 -18 128 -13 161 -14 168 -4 12 20 10 176 -3 183 -7 5
-9 41 -7 99 3 91 3 91 -22 94 -14 1 -81 11 -150 22 -69 10 -140 21 -158 24
-42 6 -45 9 -37 35 5 18 15 21 56 21 28 0 48 -3 46 -7 -3 -5 16 -9 40 -9 25
-1 97 -10 159 -19 l114 -18 0 -37 c0 -22 5 -37 13 -37 6 -1 40 -5 75 -9 l62
-7 0 37 c0 22 4 35 10 31 6 -3 10 -21 10 -39 0 -33 1 -33 52 -40 91 -10 90
-11 86 37 l-3 42 -50 8 c-65 10 -95 15 -178 26 -37 5 -73 14 -80 19 -7 5 -52
15 -102 21 -49 7 -124 19 -165 28 -41 8 -144 17 -229 19 -85 2 -163 6 -174 10
-10 3 -29 7 -40 9 -24 3 -217 34 -257 41 -14 2 -41 8 -60 13 -26 7 -29 9 -12
10 13 1 20 6 17 11 -8 13 3 13 110 -5 50 -9 137 -22 195 -30 167 -24 223 -35
237 -47 10 -8 13 -5 13 14 0 20 -6 24 -32 26 -18 2 -50 7 -70 13 -37 10 -38
11 -37 57 0 26 3 41 6 35 2 -7 13 -13 24 -13 14 0 19 7 19 25 0 22 3 24 19 16
10 -6 21 -7 25 -4 4 4 9 -3 13 -15 3 -12 10 -22 15 -22 5 0 6 5 3 10 -3 6 -3
16 2 23 14 23 12 39 -7 44 -17 5 -17 7 -5 20 10 10 15 37 15 86 0 50 3 67 10
57 5 -8 10 -41 10 -74 0 -46 3 -57 14 -53 12 5 14 -12 11 -94 -1 -62 2 -102 8
-106 11 -7 33 -11 114 -19 29 -3 51 -9 49 -13 -3 -4 7 -6 22 -4 15 2 65 -3
112 -10 47 -8 91 -12 98 -10 15 6 17 174 2 189 -6 6 -6 40 1 99 10 92 6 104
-32 105 -22 0 -301 56 -321 65 -46 19 -1 35 67 24 131 -21 252 -42 265 -47 8
-3 25 -4 37 -3 19 2 22 -3 25 -40 l3 -42 90 -19 c50 -10 106 -20 125 -23 19
-2 52 -7 73 -11 l37 -6 -10 27 c-8 22 -7 31 5 45 14 16 14 18 -2 25 -32 13
-117 33 -168 39 -27 4 -71 14 -96 22 -67 21 -463 101 -499 100 -22 -1 -29 3
-25 14 7 23 -7 35 -40 36 -42 1 -87 12 -98 23 -14 14 0 30 23 24 16 -4 20 0
20 17 0 15 5 20 14 17 8 -3 17 -1 20 6 2 7 5 4 5 -5 1 -11 6 -15 15 -12 11 4
16 -4 19 -28 3 -23 4 -18 5 20 1 28 6 52 10 52 9 0 9 25 -1 50 -3 8 -4 26 -3
40 2 14 4 31 5 38 0 6 6 12 12 12 6 0 8 -7 5 -16 -4 -11 1 -18 15 -21 19 -5
20 -10 14 -102 -3 -53 -2 -101 2 -107 4 -6 47 -16 96 -23 48 -7 87 -17 87 -22
0 -4 12 -8 28 -8 15 1 38 -2 52 -5 110 -24 131 -28 134 -25 2 2 6 46 7 97 4
89 3 93 -18 99 -31 7 -31 63 -2 103 30 39 20 80 -19 80 -15 0 -79 14 -142 31
-63 16 -297 76 -520 133 -384 98 -520 135 -529 143 -13 10 19 24 35 15 32 -16
116 -34 174 -37 30 -1 68 -8 83 -14 16 -6 33 -8 38 -5 6 3 19 -2 30 -12 13
-11 19 -13 19 -4 0 9 7 8 25 -4 15 -10 34 -14 45 -11 12 4 20 2 20 -4 0 -6 8
-11 17 -11 41 0 142 -23 137 -31 -3 -5 11 -9 30 -9 20 0 36 -4 36 -10 0 -5 17
-10 38 -10 21 0 42 -4 47 -9 6 -5 28 -12 50 -15 51 -6 167 -36 180 -46 6 -4
30 -11 55 -15 83 -12 150 -35 150 -50 0 -8 5 -15 10 -15 6 0 10 14 10 30 0 23
5 30 19 30 17 0 19 -7 18 -51 -2 -51 -2 -51 30 -55 42 -5 241 -63 263 -77 10
-6 16 -17 13 -24 -3 -8 3 -23 13 -35 13 -14 15 -22 7 -25 -7 -2 -10 -10 -8
-16 5 -13 13 -107 14 -168 1 -29 5 -36 19 -35 12 1 16 -5 15 -21 -2 -13 1 -23
6 -23 14 0 19 23 14 55 -4 19 -2 26 6 21 6 -4 12 -15 12 -24 4 -40 17 117 24
280 l8 176 -39 11 c-51 14 -54 14 -54 -5 0 -10 -6 -13 -17 -10 -10 3 -54 15
-97 26 -44 11 -82 23 -85 26 -3 3 -4 21 -2 40 3 44 -15 44 -33 -1 -13 -31 -17
-34 -38 -25 -19 8 -76 23 -172 45 -11 3 -58 15 -105 29 -111 31 -315 85 -351
92 -21 4 -155 43 -155 44 0 1 -7 3 -15 5 -8 1 -60 15 -115 30 -55 15 -118 31
-140 37 -22 5 -91 24 -155 43 -63 18 -131 36 -150 40 -19 4 -67 18 -106 30
-40 13 -85 26 -100 29 -31 6 -200 53 -224 63 -8 3 -22 7 -30 8 -35 4 -255 70
-258 77 -2 4 -10 4 -17 2 -8 -3 -28 1 -45 9 l-30 15 1 -306z m297 -257 c8 -7
14 -125 8 -149 -5 -20 -11 -25 -29 -22 -12 2 -39 7 -59 11 l-38 7 0 69 c0 75
14 98 29 47 l9 -33 1 33 c1 18 7 33 14 33 6 1 -1 5 -18 10 -21 5 -13 6 25 2
30 -3 57 -7 58 -8z m712 -102 c0 -12 21 -28 58 -45 l57 -28 -60 5 -60 5 60
-16 c33 -8 94 -22 135 -30 l75 -16 -3 -76 c-2 -42 -5 -78 -7 -80 -4 -4 -174
27 -208 38 -18 6 -36 5 -51 -2 -24 -10 -58 -4 -240 44 -21 5 -62 14 -90 19
-28 6 -85 17 -126 25 -41 8 -100 19 -130 25 -65 12 -90 30 -71 53 7 8 10 20 7
25 -4 5 -2 12 4 16 6 3 10 -4 10 -16 0 -12 3 -19 7 -16 3 4 12 2 20 -4 7 -6
23 -9 35 -6 11 3 30 1 41 -5 11 -5 32 -11 46 -13 79 -7 142 -18 132 -25 -15
-9 83 -31 106 -24 14 4 15 3 5 -4 -11 -7 -8 -10 12 -14 14 -3 26 -1 26 3 0 5
8 9 18 9 15 0 15 -2 2 -10 -11 -8 -5 -10 25 -10 50 1 98 -10 108 -24 16 -23
31 31 33 114 2 102 1 100 14 100 6 0 10 -8 10 -17z m3317 -199 c99 -22 173
-46 173 -56 0 -18 -28 -18 -83 1 -33 12 -59 16 -62 10 -4 -5 -1 -9 4 -9 6 0
11 -4 11 -8 0 -5 -26 -7 -57 -4 l-58 4 34 -36 c19 -19 33 -37 30 -39 -9 -9
-134 23 -148 38 -19 19 -13 24 40 34 24 5 37 9 28 10 -9 1 -24 10 -34 21 -18
20 -17 20 8 20 17 0 27 5 27 15 0 19 3 19 87 -1z m-3197 -86 c30 -5 63 -10 73
-10 9 1 17 -3 17 -8 0 -5 10 -7 22 -5 12 3 26 1 32 -4 13 -10 119 -31 157 -31
15 0 29 -5 31 -10 2 -6 26 -13 53 -15 67 -7 85 -14 85 -31 0 -21 -27 -18 -251
27 -291 59 -325 66 -314 69 6 1 1 5 -10 10 -17 7 -17 9 -2 9 9 1 17 6 17 12 0
7 7 8 18 4 9 -4 42 -11 72 -17z m70 -123 c49 -4 122 -16 262 -43 26 -5 54 -17
63 -26 15 -15 15 -16 -7 -16 -13 0 -38 4 -56 9 -48 14 -66 5 -42 -22 26 -27
25 -30 -10 -45 -33 -15 -62 -5 -81 29 -12 24 -10 27 19 32 56 8 26 23 -98 47
-92 18 -144 32 -155 43 -6 6 1 7 20 3 17 -3 55 -8 85 -11z m-203 -130 c32 -8
76 -22 99 -31 27 -10 64 -15 103 -12 68 3 74 -2 69 -61 l-2 -31 -56 5 c-57 5
-52 1 13 -10 38 -6 51 -24 20 -26 -17 -1 -17 -2 0 -6 12 -3 17 -14 16 -41 -1
-40 -16 -106 -18 -82 -1 11 -3 12 -9 3 -4 -7 -14 -11 -22 -9 -8 2 -31 6 -50
10 -62 12 -84 14 -118 15 -21 1 -31 5 -27 12 4 6 -2 5 -14 -3 -28 -17 -27 -24
7 -37 24 -10 24 -11 2 -6 -30 7 -169 31 -265 46 -38 5 -92 14 -120 20 -81 15
-238 41 -260 42 -18 2 -20 10 -22 67 -1 56 0 59 6 23 4 -24 9 -45 12 -47 12
-12 109 -22 118 -13 8 8 15 7 23 -1 7 -7 22 -12 35 -12 13 0 23 -5 23 -12 0
-9 3 -9 11 -1 8 8 20 8 36 2 14 -5 29 -7 34 -3 5 3 9 0 9 -5 0 -7 34 -11 91
-11 50 0 98 -4 107 -9 28 -14 125 -24 117 -11 -4 6 -1 17 5 25 7 8 8 15 3 15
-4 0 -6 28 -3 63 3 35 4 70 2 78 -2 10 -30 22 -80 35 l-77 19 55 6 c30 3 58 6
62 7 4 1 33 -5 65 -13z m-541 -294 c15 -15 87 -24 79 -11 -5 9 1 10 23 6 16
-4 53 -8 81 -8 36 -1 50 -5 47 -13 -4 -12 52 -18 157 -16 34 1 46 -2 41 -11
-4 -7 -3 -8 5 -4 16 10 41 -12 41 -36 0 -17 -5 -19 -27 -15 -45 10 -259 44
-386 63 -64 9 -120 21 -123 25 -14 24 39 41 62 20z m780 -141 c16 -5 56 -12
89 -15 108 -9 220 -27 232 -37 28 -22 -1 -29 -85 -22 -82 6 -86 6 -72 -11 13
-15 12 -19 -5 -31 -24 -18 -28 -18 -56 6 -19 16 -21 21 -10 29 21 14 3 31 -33
31 -33 0 -177 24 -226 37 -20 6 -14 8 30 13 88 11 105 11 136 0z m-957 -695
c-1 -100 -2 -105 -23 -105 -20 0 -21 -4 -18 -70 2 -46 0 -70 -7 -70 -7 0 -11
28 -11 75 l0 74 -77 4 c-75 3 -75 3 22 5 120 3 114 22 -7 22 -42 0 -80 5 -83
10 -3 6 -21 11 -38 11 -18 1 -24 3 -15 6 21 5 23 19 6 26 -7 3 2 6 20 6 17 1
32 6 32 12 0 5 -4 7 -10 4 -5 -3 -10 -2 -10 4 0 5 16 15 36 21 20 7 45 20 56
29 15 13 77 33 121 40 4 0 7 -46 6 -104z m833 2 c66 -32 83 -46 92 -74 4 -13
12 -22 19 -20 6 1 13 -6 15 -15 2 -12 -3 -18 -15 -19 -27 -1 -66 -9 -72 -14
-2 -3 18 -6 45 -7 36 -1 41 -2 17 -5 l-33 -4 0 -76 c0 -79 -8 -92 -17 -26 -7
53 -13 54 -15 2 l-1 -44 -7 45 c-7 45 -7 45 -8 8 -3 -50 -22 -60 -23 -11 l-2
38 -7 -40 -7 -40 -2 49 c-1 57 -8 57 -15 1 -6 -56 -8 -56 -16 -5 l-7 45 -1
-42 c-2 -45 -18 -59 -25 -20 -4 22 -4 22 -15 -3 -10 -22 -11 -19 -13 30 l-1
55 -10 -45 c-5 -25 -14 -54 -20 -64 -8 -15 -7 -22 5 -31 9 -6 12 -16 9 -22 -5
-8 -60 -9 -197 -3 -105 5 -240 9 -301 10 -61 0 -124 5 -141 10 -28 10 -30 14
-31 65 -1 30 3 55 8 55 5 0 8 -20 7 -45 -2 -38 1 -45 21 -50 12 -3 32 0 43 6
15 8 19 8 15 0 -5 -8 11 -11 51 -11 41 0 54 3 43 10 -11 7 -1 10 36 10 28 0
54 -3 57 -7 4 -3 35 -8 70 -9 47 -2 56 -1 37 6 -26 10 142 6 207 -4 39 -6 41
-1 45 126 3 98 4 97 -82 98 -79 0 -90 7 -90 54 0 62 8 68 101 75 94 7 148 -3
231 -42z m846 -76 c2 -35 -1 -67 -5 -72 -4 -4 -29 -5 -55 -2 l-48 6 0 52 c0
80 5 86 59 83 l46 -3 3 -64z m-505 -275 c15 -2 43 -3 62 -4 25 -2 35 -7 35
-19 0 -15 -21 -16 -237 -10 -131 3 -249 10 -263 16 -14 5 -20 10 -15 11 6 0 3
5 -5 10 -13 8 302 5 423 -4z m-1135 -273 l-3 -148 -100 0 -100 0 -3 45 c-2 25
-1 91 3 148 l7 102 99 0 100 0 -3 -147z m3766 -660 c0 -20 4 -23 37 -23 l38 0
1 -201 0 -201 -43 7 c-30 4 -38 3 -27 -4 8 -6 28 -11 44 -11 27 0 28 -2 23
-36 -7 -43 -11 -48 -32 -41 -9 4 -15 20 -16 39 -1 30 -2 31 -8 8 -4 -14 -11
-25 -16 -24 -21 2 -55 17 -55 23 1 21 14 50 24 53 17 4 0 68 -18 68 -23 0 -26
24 -26 201 l0 170 38 -3 c31 -3 37 -7 36 -25z m740 -20 c4 -9 6 -53 5 -98 0
-44 0 -84 1 -90 1 -5 2 -12 1 -15 -3 -8 -7 -124 -9 -232 -2 -97 -2 -98 -26
-98 -19 0 -25 6 -28 27 -2 21 -10 29 -34 34 -57 11 -55 5 -50 212 3 106 5 211
5 235 l1 42 64 0 c51 0 65 -3 70 -17z m166 -173 l0 -190 -35 0 -35 0 3 -70 c1
-38 4 -65 5 -60 2 6 10 10 17 10 7 0 12 8 11 17 0 10 7 19 17 21 30 6 21 -35
-10 -43 l-28 -8 25 -6 c14 -4 26 -15 28 -24 3 -14 -5 -17 -45 -17 -98 0 -90
-25 -92 277 0 145 1 269 5 274 3 5 34 9 70 9 l64 0 0 -190z m183 90 c-1 -47
-3 -129 -3 -182 0 -98 0 -98 -25 -98 -18 0 -25 -5 -25 -20 0 -11 -3 -20 -8
-20 -4 0 -13 9 -20 20 -7 11 -23 20 -37 20 l-25 0 0 185 0 186 73 -3 72 -3 -2
-85z m170 68 c4 -12 6 -76 5 -142 0 -93 -4 -125 -16 -138 -10 -12 -11 -18 -4
-18 8 0 12 -24 12 -71 0 -63 -2 -70 -15 -59 -9 7 -13 20 -10 28 3 9 0 12 -9 9
-7 -3 -17 -2 -22 2 -16 15 -67 23 -59 10 4 -6 1 -15 -6 -20 -11 -7 -15 10 -19
94 -3 56 -3 153 -2 215 l4 112 68 0 c61 0 68 -2 73 -22z m187 -83 c0 -87 -3
-105 -15 -105 -8 0 -15 6 -15 13 0 18 -34 49 -43 40 -14 -13 -6 -43 13 -53 11
-6 20 -8 20 -4 0 3 6 1 13 -5 8 -6 17 -7 21 -3 6 5 3 -86 -3 -115 -1 -2 -9 -3
-18 -4 -13 0 -14 -2 -4 -6 11 -5 11 -7 0 -14 -11 -7 -10 -9 4 -9 9 0 17 -4 17
-10 0 -5 11 -10 25 -10 13 0 28 -7 33 -17 9 -14 11 -14 22 6 6 13 18 20 25 17
8 -3 17 -1 20 4 4 6 1 10 -5 10 -6 0 -10 6 -9 13 4 29 -2 48 -13 44 -7 -2 -12
-12 -11 -23 2 -10 -1 -26 -7 -34 -8 -13 -11 -12 -24 5 -16 22 -29 75 -21 83 3
3 10 1 17 -6 6 -6 24 -8 40 -5 17 3 33 1 37 -5 4 -7 12 -6 25 3 25 19 11 36
-24 28 -25 -5 -31 -2 -40 21 -11 31 -20 35 -13 6 4 -16 0 -20 -20 -20 l-25 0
1 129 1 129 76 -1 75 -2 -3 -100 c-3 -98 -3 -189 0 -203 3 -16 -15 -82 -23
-82 -5 0 -9 -9 -9 -19 0 -11 -6 -22 -12 -24 -10 -4 -10 -7 -1 -14 7 -5 10 -24
9 -45 -3 -29 0 -37 16 -41 11 -3 18 -11 16 -19 -5 -15 -135 -21 -144 -6 -3 5
-5 43 -5 84 0 61 -2 74 -13 65 -7 -6 -11 -23 -8 -41 3 -25 0 -31 -22 -40 -14
-5 -26 -17 -26 -26 0 -11 -5 -14 -16 -10 -14 5 -15 4 -4 -8 26 -32 3 -36 -38
-7 -39 29 -42 35 -42 77 0 36 3 45 14 41 11 -4 16 3 18 26 3 28 8 33 38 38 34
6 33 6 -11 8 -45 1 -45 1 -41 -29 3 -18 0 -30 -7 -30 -8 0 -11 44 -11 141 l0
140 23 -6 22 -6 -22 20 c-17 14 -23 30 -23 63 0 25 3 48 7 51 3 4 37 7 75 7
l68 0 0 -105z m358 -58 c2 -145 2 -148 -18 -142 -16 5 -20 2 -19 -17 0 -13 3
-18 5 -11 9 21 34 2 34 -27 0 -34 -8 -37 -87 -32 -51 3 -62 7 -66 24 -4 15 2
23 26 34 l32 15 -31 -6 c-30 -6 -30 -5 -26 30 3 26 8 35 18 31 8 -3 18 4 24
14 7 14 7 20 0 20 -5 0 -10 -4 -10 -10 0 -5 -8 -3 -18 5 -13 12 -16 26 -14 55
3 23 9 39 16 38 16 -3 56 21 56 34 0 6 -11 8 -29 5 -19 -4 -33 -1 -41 8 -12
15 -11 16 12 19 7 0 17 16 22 34 9 32 10 33 60 30 l51 -3 3 -148z m180 -107
c2 -140 0 -270 -3 -287 -6 -31 -8 -33 -48 -32 -66 2 -103 13 -98 30 2 8 3 26
2 42 -1 15 6 38 14 51 10 15 12 26 6 30 -6 4 -8 13 -5 21 4 8 0 17 -8 20 -20
8 -16 364 4 377 7 4 40 7 73 6 l60 -3 3 -255z m170 251 l22 -1 0 -239 c0 -131
-3 -259 -6 -285 l-7 -47 -71 3 -71 3 -1 258 c0 142 1 269 4 282 5 29 23 32
130 26z m200 -198 c-2 -149 -6 -197 -15 -196 -9 2 -10 -4 -4 -20 6 -14 4 -33
-4 -52 l-13 -30 -10 25 -10 25 -12 -28 c-15 -30 -13 -34 15 -39 24 -4 49 -34
42 -51 -3 -8 -27 -11 -76 -9 l-71 4 -1 136 c0 75 -1 155 -2 177 0 34 9 245 12
253 1 1 35 2 76 2 l76 0 -3 -197z m-1158 -230 c44 -30 52 -43 54 -83 0 -24 7
-42 15 -45 18 -7 30 11 24 36 -3 10 0 19 6 19 10 0 14 -25 12 -80 -1 -24 0
-24 8 -4 10 22 47 38 56 24 8 -13 -13 -23 -33 -16 -16 6 -16 5 0 -7 10 -8 14
-18 10 -23 -4 -4 1 -2 10 5 9 7 22 10 28 6 7 -5 5 -12 -7 -21 -10 -7 -14 -14
-9 -14 5 0 18 7 28 16 14 13 25 15 50 8 18 -6 34 -17 36 -26 3 -15 -1 -15 -34
-5 -34 10 -38 9 -52 -11 -16 -24 -34 -30 -26 -8 4 11 -3 13 -35 9 -44 -6 -46
-3 -41 55 1 18 -3 23 -17 20 -10 -2 -19 -13 -21 -25 -4 -24 -31 -35 -55 -22
-11 7 -21 2 -36 -20 -16 -22 -21 -44 -21 -95 0 -48 -4 -66 -13 -66 -9 0 -13
13 -11 40 1 22 -2 43 -7 46 -5 3 -6 10 -3 16 4 6 9 32 11 57 5 65 8 71 45 71
25 0 29 3 18 10 -8 5 -23 7 -32 4 -13 -4 -16 -1 -12 10 4 11 1 16 -10 16 -9 0
-16 7 -16 15 0 8 4 15 10 15 6 0 6 9 0 26 -12 31 -12 57 0 29 8 -18 9 -17 9 8
1 32 24 36 61 10z m-1113 -219 c-2 -13 0 -24 4 -24 17 0 9 -20 -8 -21 -17 -1
-17 -2 0 -6 18 -5 23 -19 8 -25 -4 -1 -12 -14 -16 -28 -4 -14 -4 -22 0 -18 5
4 14 3 21 -3 20 -16 36 -2 24 21 -7 13 -7 21 0 25 5 3 10 17 10 30 0 16 7 25
26 29 32 8 36 4 57 -51 14 -36 14 -43 2 -53 -19 -16 -19 -39 -1 -46 8 -3 12
-12 9 -20 -5 -13 -8 -13 -23 1 -18 17 -45 21 -35 5 3 -5 2 -10 -3 -10 -5 0
-12 9 -15 21 -3 12 -10 18 -16 14 -6 -3 -19 1 -28 10 -11 11 -18 13 -23 6 -4
-7 -12 -2 -20 14 -7 13 -21 27 -29 30 -14 4 -20 44 -10 65 1 3 3 10 4 15 5 27
25 63 37 67 18 7 31 -18 25 -48z m-3347 -161 c0 -9 5 -45 11 -81 9 -49 16 -66
30 -69 27 -7 24 -18 -13 -44 -18 -13 -35 -26 -38 -31 -3 -4 -24 -6 -45 -3 -22
2 -48 4 -59 4 -32 1 0 28 55 46 58 20 63 35 12 36 -21 0 -32 3 -25 6 14 6 16
33 2 33 -5 0 -10 -4 -10 -10 0 -5 -4 -10 -10 -10 -5 0 -10 7 -10 15 0 9 -9 15
-23 15 -22 0 -23 3 -18 42 5 36 10 43 41 54 53 19 100 18 100 -3z m7812 -93
c18 -11 41 -20 51 -20 16 0 18 -6 12 -42 -3 -24 -8 -50 -11 -59 -2 -9 2 -21
10 -28 8 -6 12 -20 9 -30 -4 -16 -17 -20 -86 -23 -166 -9 -385 38 -403 87 -10
26 22 50 66 50 33 0 40 3 40 18 0 16 3 17 15 7 8 -7 15 -18 15 -26 0 -15 60
-34 111 -34 20 0 56 -7 79 -15 57 -20 101 -20 94 0 -4 8 1 17 10 21 26 10 19
28 -24 63 -60 48 -52 70 12 31z m-4606 -107 c-24 -49 -25 -58 -14 -89 6 -19
15 -34 19 -34 14 0 69 78 69 98 0 11 14 32 30 45 17 14 30 30 30 36 0 24 44
22 103 -7 34 -16 98 -43 142 -60 109 -42 189 -76 195 -83 3 -3 21 -9 40 -13
19 -3 57 -17 84 -31 30 -15 58 -22 71 -19 13 3 26 1 29 -5 4 -5 22 -7 41 -4
38 6 109 -14 194 -56 30 -14 58 -25 63 -24 4 2 8 -2 8 -7 0 -6 7 -10 16 -10 9
0 54 -20 100 -45 45 -25 94 -45 108 -45 13 0 26 -5 28 -11 2 -6 26 -13 53 -15
27 -3 53 -8 59 -13 6 -4 24 -11 39 -15 49 -12 418 -171 486 -210 23 -13 24
-17 23 -124 -1 -76 2 -113 11 -120 7 -5 37 -17 67 -27 91 -29 199 -89 263
-146 10 -10 29 -14 45 -12 19 3 23 2 14 -5 -10 -7 -4 -11 23 -16 21 -4 55 -18
76 -32 21 -13 44 -24 50 -24 30 0 132 -45 148 -66 10 -13 21 -21 24 -18 3 3 8
-4 12 -15 8 -26 31 -38 74 -39 46 -1 58 -15 41 -47 -11 -21 -11 -29 0 -50 15
-27 52 -44 58 -26 2 7 9 6 18 -4 12 -12 35 -14 107 -11 51 2 100 7 110 11 10
4 33 0 55 -11 20 -9 31 -19 24 -22 -10 -3 -7 -8 7 -19 12 -8 21 -20 21 -28 0
-10 11 -13 40 -10 32 3 40 0 40 -13 0 -26 -78 -29 -96 -4 -15 22 -54 36 -54
20 0 -15 -43 -47 -64 -48 -14 0 -17 -5 -12 -25 5 -20 3 -25 -12 -25 -10 0 -24
-11 -30 -25 -10 -21 -15 -23 -36 -15 -17 6 -26 5 -29 -3 -3 -9 -8 -9 -18 1
-13 12 -115 17 -143 6 -13 -5 -14 -9 -5 -20 9 -11 9 -18 0 -28 -10 -12 -7 -18
16 -31 l28 -16 -35 6 c-19 3 -36 10 -38 15 -2 6 -14 10 -27 10 -12 0 -25 7
-29 15 -3 8 -12 12 -19 9 -16 -6 -97 33 -97 47 0 5 -9 9 -20 9 -11 0 -20 5
-20 10 0 6 -6 10 -13 10 -8 0 -54 20 -103 45 -49 25 -114 55 -144 65 l-55 19
35 -29 c19 -17 40 -30 48 -30 23 0 72 -30 72 -44 0 -16 -38 -28 -54 -18 -6 3
-15 7 -21 8 -5 0 -15 2 -22 2 -6 1 -15 11 -18 22 -3 11 -11 20 -17 20 -5 0
-23 11 -40 25 -16 13 -46 29 -67 35 -21 5 -46 19 -56 30 -10 11 -24 20 -32 20
-7 0 -13 7 -13 15 0 10 -9 13 -29 10 -17 -2 -35 2 -41 10 -6 7 -23 16 -38 20
-15 3 -44 17 -64 31 -21 13 -38 21 -38 17 0 -5 -5 0 -11 10 -5 9 -17 17 -24
17 -8 0 -15 7 -15 16 0 11 -5 14 -17 10 -9 -4 -25 1 -37 13 -23 21 -175 101
-192 101 -6 0 -19 9 -29 20 -18 20 -17 20 19 20 23 0 39 -5 42 -14 3 -8 19
-19 35 -25 16 -5 44 -21 61 -35 18 -13 45 -28 61 -31 15 -4 27 -11 27 -15 0
-4 12 -11 28 -15 15 -3 42 -14 60 -22 18 -9 35 -14 37 -11 8 7 -88 66 -147 90
-29 12 -54 26 -56 30 -2 4 -14 8 -27 8 -12 0 -28 7 -35 15 -7 8 -18 15 -25 15
-7 0 -15 7 -18 15 -4 8 -49 35 -102 61 -52 25 -98 50 -101 56 -4 5 -21 7 -41
3 -23 -4 -33 -3 -29 4 7 11 -27 51 -43 51 -4 0 -21 10 -36 22 -15 12 -35 22
-44 23 -28 3 -61 16 -61 25 0 4 -42 29 -93 54 -52 26 -108 60 -125 75 -17 16
-33 26 -36 23 -3 -3 -6 2 -6 10 0 9 11 19 24 22 25 6 40 31 30 48 -3 5 -15 7
-26 4 -17 -4 -43 7 -77 31 -2 1 12 24 33 49 38 50 44 69 23 77 -15 6 -67 -37
-67 -55 0 -10 -2 -10 -9 1 -7 11 -10 9 -13 -8 -1 -12 -7 -22 -13 -23 -5 -1
-23 -23 -40 -50 -16 -26 -33 -48 -37 -48 -4 0 -29 13 -55 30 -26 17 -41 30
-34 30 7 0 10 4 6 9 -3 5 -1 12 5 16 16 10 12 28 -6 21 -8 -3 -12 -2 -9 4 9
14 32 12 38 -2 2 -7 4 4 4 25 -1 36 -3 38 -27 34 -15 -3 -38 3 -58 15 l-32 20
30 41 c47 65 42 80 -38 109 l-69 24 -46 -47 c-26 -26 -47 -52 -47 -58 0 -6 -4
-11 -10 -11 -5 0 -7 13 -3 30 5 29 4 30 -23 28 -34 -2 -74 17 -74 36 0 7 14
30 30 51 17 21 30 41 30 46 0 8 -95 69 -109 69 -5 0 -31 -24 -58 -54 -47 -51
-50 -53 -75 -40 -32 17 -28 43 14 94 34 42 35 50 6 50 -15 0 -29 -11 -41 -31
-9 -17 -26 -33 -37 -36 -11 -3 -20 -14 -20 -24 0 -14 -7 -19 -26 -19 -22 0
-25 2 -14 15 11 13 8 15 -14 13 -14 -1 -26 -6 -26 -10 0 -4 -7 -8 -15 -8 -13
0 -13 3 -3 20 11 16 9 22 -6 33 -28 21 -28 48 -1 77 13 14 27 39 31 55 4 17
13 38 21 47 14 15 17 16 31 2 14 -14 13 -21 -12 -71z m-3791 21 c6 -35 8 -36
44 -32 37 3 37 3 25 -21 -15 -29 -74 -52 -99 -39 -11 7 -21 5 -32 -4 -9 -7
-40 -13 -69 -13 l-54 0 0 33 c0 17 -4 32 -10 32 -5 0 -10 5 -10 10 0 6 5 10
11 10 6 0 18 9 27 19 19 21 69 41 58 22 -4 -6 0 -11 8 -11 9 0 16 4 16 9 0 4
11 6 24 4 13 -3 27 0 30 6 13 20 24 11 31 -25z m575 -83 c21 -40 8 -196 -16
-187 -7 3 -16 1 -19 -4 -9 -15 -25 -12 -25 5 0 8 -10 23 -21 34 -19 17 -21 27
-15 72 11 78 70 127 96 80z m6780 -30 c108 -26 298 -70 330 -76 19 -3 44 -10
55 -15 32 -13 209 -60 230 -61 20 0 20 -1 0 -10 -16 -7 -12 -8 15 -5 19 3 29
2 23 -1 -26 -10 -13 -25 17 -20 17 4 40 0 57 -8 15 -8 35 -12 44 -10 9 3 24
-1 32 -9 9 -9 18 -11 24 -5 12 12 45 0 37 -13 -4 -6 4 -5 16 2 12 7 20 8 16 2
-7 -12 16 -22 49 -22 12 0 34 -6 48 -13 20 -11 23 -17 15 -25 -20 -20 -77 -14
-218 24 -74 19 -155 39 -180 45 -63 13 -238 56 -345 84 -49 13 -110 29 -134
35 -39 10 -41 13 -25 24 17 13 16 14 -5 21 -12 4 -36 1 -52 -5 -25 -11 -43 -9
-115 10 -46 13 -87 27 -90 31 -3 5 2 6 10 3 11 -4 16 0 16 13 0 11 2 22 5 25
6 5 47 -1 125 -21z m-6055 -17 c13 -8 22 -21 19 -29 -3 -7 -1 -16 5 -20 18
-11 12 -25 -10 -25 -31 0 -17 -24 17 -28 36 -4 53 -19 32 -27 -9 -4 -14 -14
-11 -25 5 -20 -14 -34 -64 -45 -26 -5 -33 -3 -33 9 0 8 -9 18 -21 21 -12 4
-18 12 -15 21 3 8 -1 14 -10 14 -10 0 -14 6 -10 15 4 11 -2 15 -22 16 -27 0
-27 0 -3 10 18 7 21 12 12 23 -9 10 -1 16 36 29 36 12 42 16 22 16 -36 1 -44
13 -17 28 31 16 44 16 73 -3z m-1129 -17 c-16 -12 -12 -15 38 -26 30 -7 58
-17 62 -22 6 -11 -15 -41 -25 -35 -3 2 -33 0 -66 -5 -98 -15 -205 -19 -205 -9
0 6 -21 10 -47 10 -39 1 -44 3 -30 11 10 6 31 15 45 19 15 5 63 22 107 38 87
33 153 43 121 19z m8579 -17 c15 -6 20 -16 19 -36 -1 -16 -3 -31 -4 -34 -1 -3
-1 -9 0 -15 1 -5 3 -43 5 -82 4 -80 4 -80 -56 -63 -43 12 -50 34 -42 116 l6
52 36 -4 c39 -4 33 0 -11 10 -24 6 -28 11 -28 41 0 34 1 35 28 29 15 -4 36
-10 47 -14z m628 -121 c34 -9 37 -13 37 -44 0 -19 -5 -37 -10 -40 -7 -4 -8
-11 -1 -18 5 -7 8 -48 7 -92 l-1 -80 -33 3 c-46 3 -95 30 -88 48 3 8 1 14 -5
14 -7 0 -7 105 0 128 1 1 13 3 29 3 l27 2 -27 4 c-26 4 -28 8 -28 49 0 49 -7
48 93 23z m-9455 -82 c12 -14 4 -94 -9 -103 -5 -3 -9 -14 -9 -25 0 -10 -4 -19
-10 -19 -5 0 -10 -7 -10 -16 0 -27 -43 -64 -74 -64 -25 0 -27 2 -15 16 9 11
10 20 2 33 -6 9 -11 40 -11 68 -2 75 30 107 119 122 4 1 11 -5 17 -12z m5527
-11 c56 -13 143 -43 190 -66 11 -6 43 -18 70 -28 28 -10 65 -26 82 -35 29 -15
32 -21 26 -50 -3 -17 -8 -34 -10 -37 -4 -5 -84 21 -153 50 -25 10 -85 35 -135
56 -49 20 -124 53 -165 73 l-75 36 38 3 c20 2 37 8 37 13 0 6 8 8 18 5 9 -3
44 -12 77 -20z m-2652 -83 c101 -79 229 -214 224 -235 -4 -14 -1 -17 11 -14
18 6 30 0 50 -26 12 -14 10 -16 -10 -12 -13 2 -2 -3 25 -12 48 -16 58 -27 32
-38 -26 -10 -16 -21 22 -24 26 -2 51 -14 83 -40 25 -21 53 -41 63 -45 23 -8
15 -23 -15 -30 -13 -2 -31 -8 -40 -12 -13 -5 -18 -3 -18 9 0 9 -4 16 -9 16 -5
0 -29 19 -53 43 -25 23 -64 59 -87 80 -23 21 -39 42 -36 47 3 6 0 7 -7 5 -8
-3 -51 31 -99 77 -47 46 -113 109 -147 141 -64 60 -71 72 -49 80 7 3 5 6 -5 6
-11 1 -15 6 -12 16 4 8 8 15 11 15 3 0 32 -21 66 -47z m-2002 -48 c-11 -20 -9
-35 5 -35 8 0 14 -8 15 -17 3 -44 1 -81 -6 -110 -6 -27 -4 -33 9 -33 9 0 16
-8 16 -17 0 -18 -28 -53 -42 -53 -14 0 -9 22 10 36 16 12 14 15 -18 43 -19 17
-30 30 -25 31 6 0 4 4 -4 9 -8 5 -15 23 -16 40 -2 24 1 31 16 31 36 0 28 18
-11 24 -41 6 -56 26 -20 26 23 0 27 18 6 26 -22 8 -7 42 23 52 23 8 27 5 37
-17 6 -14 9 -30 5 -36z m8922 -71 c74 -16 77 -18 77 -45 0 -34 0 -34 -71 -14
-148 41 -169 49 -169 61 0 24 -21 26 -36 5 -9 -12 -20 -19 -25 -16 -9 6 -13
48 -4 57 3 2 38 -3 78 -13 39 -10 107 -26 150 -35z m-2887 -23 c-3 -5 10 -18
30 -30 19 -12 33 -25 29 -31 -3 -5 0 -39 7 -76 10 -54 17 -70 38 -83 15 -9 25
-22 22 -30 -3 -9 0 -11 8 -6 8 5 11 4 7 -2 -4 -6 0 -24 8 -39 21 -41 19 -44
-14 -28 -27 13 -46 39 -43 56 1 4 -7 12 -18 18 -16 9 -18 8 -14 -5 9 -22 -17
-19 -83 12 -41 18 -53 27 -39 30 10 3 23 0 29 -6 12 -12 47 -15 47 -3 0 13
-17 33 -26 30 -5 -1 -19 4 -32 11 -13 7 -30 10 -37 7 -8 -3 -31 4 -52 14 -34
17 -36 19 -12 20 14 0 30 -5 37 -12 9 -9 12 -8 12 4 0 9 7 18 15 22 22 8 18
43 -5 49 -10 3 -20 1 -22 -4 -2 -5 -13 -6 -26 -3 -21 6 -21 7 -5 19 10 7 21
11 25 9 5 -3 8 2 8 11 0 10 -5 13 -12 9 -7 -4 -8 -3 -4 4 4 7 18 12 31 12 13
0 27 5 30 10 4 6 11 8 16 5 5 -4 17 -1 26 4 22 13 26 13 19 2z m393 -54 c52 2
55 1 107 -50 30 -28 54 -57 54 -64 0 -7 10 -21 22 -33 12 -11 19 -23 15 -26
-10 -10 -70 18 -89 41 -15 18 -17 18 -18 3 0 -14 -4 -16 -25 -8 -14 5 -25 7
-25 3 0 -3 -9 2 -20 12 -11 10 -20 24 -20 32 0 7 -6 13 -14 13 -8 0 -18 9 -21
20 -3 11 -13 20 -21 20 -8 0 -14 6 -14 14 0 8 -3 23 -6 33 -5 16 -4 16 8 3 9
-10 29 -14 67 -13z m-1141 -18 c2 6 10 11 18 11 9 0 12 -4 9 -10 -8 -13 21
-13 48 1 20 9 20 9 5 -4 -20 -15 -24 -37 -8 -37 6 0 10 5 10 10 0 6 12 10 28
10 l27 0 -25 -20 c-24 -19 -25 -20 -4 -26 17 -4 21 -14 22 -50 0 -29 -4 -44
-12 -44 -12 0 -36 -81 -36 -121 0 -13 -7 -19 -22 -19 -29 1 -115 23 -124 33
-4 4 -16 7 -26 7 -10 0 -18 5 -18 10 0 6 -5 10 -12 10 -6 0 -20 7 -29 16 -14
13 -16 21 -8 36 6 11 8 37 4 57 -5 33 -3 39 14 44 13 3 21 13 21 25 0 11 10
31 22 45 19 22 26 23 57 15 25 -7 36 -7 39 1z m3703 -58 c4 7 12 8 18 5 6 -4
9 -11 6 -16 -3 -4 11 -8 31 -8 20 0 40 -5 43 -11 4 -6 22 -11 41 -12 50 -3 70
-16 70 -44 0 -32 -12 -32 -120 -1 -47 13 -108 29 -136 36 -28 6 -66 21 -85 33
l-34 21 30 6 c17 3 52 0 79 -7 37 -9 52 -10 57 -2z m-8817 -47 c5 -13 14 -15
41 -10 22 4 35 3 35 -4 0 -5 -7 -10 -16 -10 -10 0 -12 -4 -7 -12 4 -7 6 -21 5
-31 -2 -12 6 -21 27 -28 17 -6 31 -16 32 -22 1 -7 4 -1 8 13 5 17 15 26 33 28
22 3 26 -1 30 -28 4 -23 0 -34 -11 -38 -21 -8 -38 -21 -69 -54 -15 -16 -36
-28 -47 -28 -27 0 -65 -27 -65 -46 0 -9 11 -14 33 -15 49 -2 82 -13 83 -29 0
-8 5 -23 9 -34 5 -11 3 -21 -4 -25 -6 -4 -12 -23 -13 -43 -1 -28 -7 -39 -30
-53 -23 -13 -33 -14 -41 -6 -9 9 -9 14 2 20 9 6 10 11 3 15 -6 4 -9 13 -5 21
3 8 0 15 -6 15 -8 0 -10 13 -6 40 5 35 4 40 -14 40 -24 0 -35 31 -35 98 0 34
-4 42 -19 42 -12 0 -16 4 -11 12 9 14 13 35 18 98 3 37 7 60 15 88 3 9 20 -1
25 -14z m5532 -77 c8 3 32 -2 54 -11 22 -9 52 -16 65 -16 14 0 25 -6 25 -12 0
-7 14 -28 30 -47 35 -40 40 -81 10 -81 -11 0 -20 -7 -20 -15 0 -8 6 -15 13
-15 7 0 18 -5 25 -12 9 -9 6 -14 -11 -23 -14 -7 -21 -18 -19 -32 4 -31 -41
-56 -87 -49 -20 4 -46 7 -58 9 -12 1 -28 8 -35 15 -6 6 -17 12 -24 12 -6 0
-20 12 -30 27 -9 15 -26 35 -37 43 -17 14 -18 19 -6 38 8 12 22 25 31 28 10 3
18 10 18 16 0 7 -5 6 -14 -1 -11 -9 -20 -10 -35 -1 -24 13 -28 30 -6 30 8 0
15 7 15 15 0 7 8 19 18 24 9 6 11 11 5 11 -7 0 -13 5 -13 10 0 6 16 10 35 10
31 0 35 3 32 23 -2 12 -2 17 0 10 2 -7 11 -9 19 -6z m1889 2 c6 -6 5 -16 -3
-29 -16 -26 -16 -27 13 -34 19 -5 25 -13 25 -34 0 -23 -7 -31 -41 -46 -30 -13
-44 -15 -52 -7 -6 6 -21 11 -33 11 -15 0 -24 8 -29 27 -8 32 14 53 54 54 26 0
26 0 3 9 -12 5 -25 16 -28 25 -4 8 -10 15 -16 15 -5 0 -6 -6 -2 -12 6 -10 4
-10 -7 0 -8 7 -9 15 -3 21 21 21 97 21 119 0z m-3511 -45 c20 -19 20 -25 1
-18 -17 7 -18 -14 -5 -56 6 -20 8 -21 9 -5 1 15 4 16 13 7 21 -21 39 -14 32
13 -8 33 7 32 68 -5 26 -16 53 -30 58 -30 6 0 10 -4 10 -10 0 -5 -9 -10 -20
-10 -25 0 -70 -21 -70 -32 0 -5 -4 -7 -10 -3 -13 8 -61 -5 -54 -16 3 -5 -3 -9
-14 -9 -10 0 -45 -9 -78 -20 -51 -17 -60 -17 -70 -5 -6 8 -26 16 -45 16 -30 2
-31 2 -6 6 17 3 27 11 27 21 0 13 4 12 19 -7 13 -17 24 -22 37 -17 18 7 18 8
2 17 -29 16 -21 38 21 55 38 15 39 16 36 62 -4 65 7 78 39 46z m-1886 -26 c19
-19 14 -36 -20 -68 -18 -16 -27 -30 -20 -30 6 0 12 -5 12 -11 0 -7 -11 -9 -29
-6 -16 3 -32 3 -36 -1 -4 -4 -12 -7 -18 -7 -7 -1 -11 -7 -9 -14 2 -9 -4 -12
-21 -7 -13 3 -27 2 -31 -2 -4 -4 -13 -7 -19 -7 -7 -1 -25 -7 -40 -15 -25 -12
-30 -12 -38 1 -17 28 -10 38 26 33 35 -4 44 3 25 22 -7 7 -6 20 4 39 29 56
180 107 214 73z m-2997 -90 c31 -14 48 -27 45 -35 -4 -9 4 -13 23 -13 37 0 41
-6 25 -39 -19 -37 -9 -64 21 -57 17 4 25 0 33 -20 19 -40 14 -52 -23 -65 -39
-14 -46 -29 -14 -29 15 0 19 -4 15 -16 -3 -9 -6 -20 -6 -25 0 -5 -7 -9 -16 -9
-11 0 -14 -5 -10 -16 3 -8 1 -24 -4 -34 -9 -17 -8 -18 7 -13 16 6 16 5 5 -10
-8 -9 -11 -20 -8 -26 3 -5 1 -11 -4 -13 -6 -2 -13 -15 -15 -30 -8 -42 -21 -73
-39 -87 -19 -16 -36 -6 -36 20 0 14 -7 19 -25 19 -20 0 -25 5 -25 24 0 18 -6
25 -22 28 -31 4 -31 42 -1 46 31 5 49 30 36 50 -8 14 -4 21 26 39 l36 22 -25
9 c-14 6 -32 17 -39 26 -10 12 -23 14 -51 10 -41 -7 -60 7 -41 30 11 13 5 46
-8 46 -3 0 -12 4 -20 9 -11 7 -5 18 30 52 24 24 35 40 25 36 -12 -5 -26 -1
-37 9 -17 15 -16 18 16 49 18 19 30 37 27 41 -11 11 45 -5 99 -28z m799 -77
c0 -6 -5 -13 -12 -17 -8 -5 -6 -11 6 -20 11 -8 14 -14 6 -19 -6 -4 -8 -15 -5
-26 5 -15 1 -19 -19 -19 -19 0 -26 -5 -26 -20 0 -11 5 -20 10 -20 6 0 10 -13
10 -30 0 -20 -5 -30 -15 -30 -24 0 -17 -20 8 -21 12 0 16 -3 10 -6 -7 -2 -13
-13 -13 -23 0 -10 -4 -22 -10 -25 -5 -3 -10 1 -10 9 0 9 -7 16 -15 16 -17 0
-19 12 -5 26 7 7 1 9 -20 6 -32 -5 -39 8 -15 28 7 6 17 31 21 56 3 24 10 41
15 38 5 -3 9 4 9 15 0 10 -6 22 -12 24 -9 4 -2 16 20 36 31 30 62 41 62 22z
m4010 -81 c0 -34 5 -37 26 -15 17 17 54 20 54 5 0 -6 26 -10 59 -10 32 0 86
-3 120 -6 50 -6 61 -10 61 -25 0 -11 7 -19 15 -19 13 0 14 4 4 21 -14 27 -4
36 53 41 33 4 51 1 61 -10 14 -13 41 -21 88 -25 10 -1 15 -12 15 -37 1 -19 -1
-27 -3 -17 -6 24 -50 23 -57 -3 -3 -11 -9 -29 -12 -40 -4 -17 -1 -20 25 -20
17 0 31 -4 31 -9 0 -17 -20 -23 -51 -16 -24 5 -30 11 -26 26 3 12 0 19 -10 19
-8 0 -11 -5 -8 -10 4 -6 1 -17 -5 -25 -9 -11 -9 -19 -2 -28 7 -8 6 -17 -3 -30
-13 -18 -14 -18 -24 2 -7 13 -8 22 -1 26 18 11 10 25 -15 25 -14 0 -34 9 -44
19 -18 18 -19 18 -14 -20 4 -25 2 -39 -6 -39 -6 0 -11 5 -11 11 0 8 -4 8 -15
-1 -20 -16 -38 -2 -31 25 4 14 0 28 -9 35 -8 7 -15 9 -15 5 0 -4 -12 0 -26 10
-36 23 -55 13 -48 -25 4 -19 2 -30 -5 -30 -6 0 -11 -7 -11 -15 0 -18 -17 -19
-53 -2 -34 15 -30 29 14 41 43 12 47 15 30 26 -19 11 -6 40 19 40 11 0 20 5
20 10 0 6 -6 10 -14 10 -8 0 -16 5 -18 12 -4 10 -13 10 -45 0 -22 -7 -58 -12
-79 -12 -33 0 -42 5 -56 30 -11 19 -25 30 -40 31 -21 1 -21 1 5 11 18 6 26 15
23 24 -3 9 2 14 14 14 16 0 20 -7 20 -30z m2230 -52 l9 -23 0 23 c1 25 9 27
46 10 26 -12 33 -32 15 -43 -6 -4 -9 -20 -8 -36 2 -26 9 -34 31 -30 4 0 7 -3
7 -8 0 -17 -12 -41 -21 -41 -4 0 -6 7 -2 16 5 14 2 16 -23 10 -78 -19 -78 -19
-90 11 -12 31 -7 103 7 103 5 0 9 7 9 15 0 22 9 18 20 -7z"/>
<path d="M9187 6156 c-10 -11 -17 -12 -25 -4 -8 8 -13 7 -18 -5 -3 -9 -10 -15
-14 -12 -5 3 -12 -4 -15 -16 -5 -15 -10 -18 -15 -10 -12 20 -60 2 -60 -21 0
-12 -6 -26 -14 -32 -25 -19 -25 -106 -1 -106 11 0 15 13 15 54 0 30 4 57 9 60
10 7 41 -37 41 -58 0 -9 8 -20 18 -25 24 -13 52 10 56 45 5 42 8 43 16 4 6
-28 8 -21 9 36 1 54 5 73 16 78 16 6 21 26 6 26 -5 0 -16 -6 -24 -14z"/>
<path d="M2858 5320 c-25 -26 -28 -36 -28 -98 0 -104 12 -222 21 -216 5 3 9
20 9 39 0 23 7 39 24 52 18 14 23 28 23 61 0 23 -4 42 -8 42 -5 0 -10 21 -11
48 l-1 47 -7 -55 -7 -55 -1 53 c-2 59 15 90 37 69 10 -9 12 -7 9 13 -4 34 -28
35 -60 0z"/>
<path d="M2863 4890 c-13 -5 -23 -6 -23 -2 0 4 -4 1 -9 -7 -15 -24 -25 -219
-12 -235 6 -7 10 -29 9 -47 -2 -24 1 -34 11 -34 10 0 15 12 15 39 1 33 6 42
33 57 19 11 35 14 38 9 4 -6 1 -10 -6 -10 -10 0 -10 -3 -2 -11 9 -9 16 -7 30
6 13 13 14 20 5 23 -6 2 -12 10 -12 18 0 8 -6 14 -12 14 -10 0 -13 23 -12 87
2 101 -4 112 -53 93z"/>
<path d="M3430 4591 c0 -75 -3 -175 -7 -223 -3 -49 -2 -88 3 -88 5 0 81 -9
169 -20 88 -12 191 -25 230 -30 38 -5 73 -6 77 -4 9 6 4 105 -8 163 -8 40 13
198 28 207 6 4 9 -61 6 -187 l-3 -194 105 -12 c58 -6 121 -14 140 -17 19 -3
80 -10 135 -16 55 -7 114 -14 130 -17 17 -3 44 -6 60 -7 29 -1 30 0 31 49 3
73 -8 94 -54 101 -49 8 -49 31 -3 70 37 31 70 95 71 135 0 25 -4 27 -57 33
-32 3 -78 11 -103 16 -79 18 -461 88 -575 106 -60 9 -170 29 -242 44 l-133 27
0 -136z"/>
<path d="M3172 4598 c-8 -8 -12 -65 -12 -191 0 -165 1 -178 18 -175 15 3 18
21 23 158 3 85 9 170 14 188 6 28 5 32 -12 32 -10 0 -24 -5 -31 -12z"/>
<path d="M6730 4389 c-19 -5 -82 -16 -140 -24 -190 -29 -178 -26 -152 -36 13
-5 26 -18 29 -29 3 -11 12 -20 19 -20 8 0 14 -5 14 -11 0 -6 6 -9 14 -6 7 3
25 -7 39 -21 27 -28 46 -86 54 -164 l5 -46 -66 -7 c-64 -7 -66 -8 -71 -39 -4
-17 -5 -62 -3 -101 l3 -70 70 3 c39 1 102 7 140 12 39 5 111 11 160 15 180 11
250 17 258 22 8 5 1 503 -8 511 -3 3 -22 0 -42 -6 -57 -16 -158 -33 -248 -42
-105 -11 -263 -12 -269 -2 -2 4 57 18 132 30 152 26 203 41 137 40 -22 0 -56
-4 -75 -9z m290 -164 c0 -14 5 -17 40 -19 12 -1 15 -15 15 -61 l0 -60 -38 -3
c-30 -3 -37 -7 -33 -18 7 -17 -4 -97 -12 -90 -2 3 -13 -5 -22 -17 -10 -12 -21
-20 -24 -17 -4 5 -11 252 -7 288 2 19 81 16 81 -3z m-102 -115 c2 -110 -7
-224 -15 -187 -3 9 -9 17 -14 17 -6 0 -8 -3 -6 -7 3 -5 -1 -14 -9 -21 -12 -11
-14 -10 -14 4 0 10 -3 14 -6 11 -4 -3 -15 -2 -25 3 -13 8 -18 6 -21 -7 -2 -13
-8 -8 -20 17 -15 29 -18 31 -18 13 0 -13 -4 -23 -10 -23 -15 0 -12 -48 3 -53
6 -2 9 -7 6 -11 -16 -17 -39 8 -40 43 -1 20 -3 55 -4 79 -3 37 -1 42 18 42 29
0 15 10 -19 14 -28 3 -29 6 -29 54 1 53 21 94 36 70 7 -10 9 -9 9 4 0 22 9 27
83 43 96 21 92 26 95 -105z m-312 -141 c-3 -15 1 -34 9 -45 8 -11 15 -30 15
-43 0 -21 -4 -23 -34 -19 -19 2 -32 0 -30 -4 3 -5 -2 -11 -11 -15 -10 -3 -21
0 -26 8 -6 10 -9 10 -9 2 0 -7 -7 -13 -15 -13 -12 0 -15 15 -15 78 l0 79 48 9
c57 12 76 2 68 -37z"/>
<path d="M6320 4263 c-14 -2 -70 -10 -125 -18 -112 -17 -304 -48 -408 -66 -41
-7 -63 -15 -56 -20 7 -4 26 -6 41 -3 15 2 42 6 58 9 l30 5 0 -215 c0 -165 3
-215 13 -216 17 -2 23 -1 100 6 l67 7 0 224 c0 123 4 224 9 224 4 0 9 -28 10
-62 2 -67 9 -88 22 -67 5 9 9 -16 9 -63 0 -63 -3 -78 -15 -78 -12 0 -15 -17
-15 -90 l0 -89 63 5 c34 3 107 9 162 12 l99 7 1 97 c0 87 -2 98 -17 98 -15 0
-18 9 -18 50 0 44 3 52 25 62 31 14 29 40 -4 48 l-23 5 21 19 c12 11 21 28 21
39 0 18 -6 19 -110 15 -61 -3 -113 -1 -116 3 -3 5 4 9 16 9 30 0 172 30 190
41 12 7 11 8 -5 7 -11 0 -31 -2 -45 -5z"/>
<path d="M3426 4138 c-6 -37 -10 -397 -4 -404 3 -2 85 -8 184 -14 98 -5 217
-13 264 -16 47 -3 121 -8 165 -9 44 -2 114 -6 155 -10 41 -3 134 -6 205 -8
l130 -2 -3 49 c-1 27 -7 54 -12 61 -5 7 -7 14 -5 17 7 7 -55 19 -65 13 -12 -7
-19 18 -13 46 3 15 22 37 48 54 35 24 45 38 53 75 13 55 8 64 -32 55 -65 -16
-229 -11 -286 7 l-55 18 47 -2 c26 -2 44 0 40 3 -12 10 -228 38 -389 50 -138
11 -155 10 -188 -5 -28 -14 -43 -15 -68 -7 -18 5 -52 13 -76 16 -26 4 -39 10
-31 15 8 5 6 9 -7 12 -10 3 -25 9 -34 12 -13 6 -18 0 -23 -26z"/>
<path d="M5605 4149 c-22 -4 -89 -15 -150 -24 -60 -9 -114 -21 -120 -26 -7 -7
6 -8 40 -4 28 4 55 8 60 9 6 0 14 -18 20 -42 9 -41 13 -45 77 -74 66 -31 68
-33 68 -69 l0 -36 -61 -6 c-34 -3 -66 -10 -71 -15 -5 -5 -11 -42 -12 -82 l-3
-72 76 6 c42 3 131 8 199 12 l122 7 0 164 0 165 -22 -6 c-86 -26 -145 -12 -97
22 26 18 86 25 95 10 9 -15 24 2 24 29 0 23 -3 24 -27 18 -70 -19 -115 -24
-203 -24 l-95 1 82 17 c45 9 85 20 89 24 9 9 -40 7 -91 -4z"/>
<path d="M3157 4083 c-4 -3 -7 -52 -8 -107 0 -56 -4 -126 -8 -156 -11 -73 -2
-105 30 -105 l24 0 0 165 c0 91 4 175 9 188 7 19 5 22 -16 22 -14 0 -28 -3
-31 -7z"/>
<path d="M1943 3246 c10 -25 -108 -40 -136 -17 -13 11 -20 12 -29 3 -7 -7 -20
-12 -29 -12 -14 0 -19 -10 -21 -47 -3 -46 -4 -48 -35 -51 -28 -3 -33 -7 -33
-29 0 -19 4 -24 16 -19 9 3 42 6 75 6 53 0 61 3 69 23 l9 22 0 -22 c1 -22 5
-23 81 -23 88 0 104 10 80 54 -6 13 -11 36 -9 52 4 59 0 74 -22 74 -14 0 -19
-5 -16 -14z"/>
<path d="M1466 3233 c-3 -3 -6 -16 -6 -29 0 -17 -8 -24 -31 -29 -34 -8 -34
-30 1 -30 13 0 25 -6 28 -13 2 -8 -10 -11 -45 -10 -26 1 -58 -2 -70 -6 -17 -5
-23 -3 -23 8 0 10 9 16 23 17 21 1 21 1 -3 8 -24 7 -24 7 -5 19 19 11 18 11
-7 12 -24 0 -28 -4 -28 -30 0 -16 -3 -30 -7 -31 -62 -6 -63 -6 -63 30 0 27 3
32 12 23 22 -22 41 -14 36 13 -4 17 0 29 11 35 14 8 14 9 -2 10 -26 0 -79 -29
-72 -41 9 -13 -5 -70 -15 -64 -9 6 -21 -32 -14 -48 3 -9 66 -11 229 -9 l225 3
0 24 c0 20 -5 24 -37 27 -28 2 -37 7 -35 18 3 12 1 13 -9 3 -21 -21 -33 -15
-14 7 24 27 13 35 -22 18 -17 -9 -27 -20 -25 -31 4 -21 -5 -22 -24 -3 -16 16
-19 41 -5 31 5 -3 12 -1 16 5 3 5 1 10 -4 10 -15 0 -14 37 1 42 8 3 9 6 1 11
-5 4 -13 4 -17 0z"/>
<path d="M8723 2560 c-3 -10 -13 -20 -22 -23 -16 -4 -18 -30 -24 -292 l-6
-289 28 -35 c34 -44 61 -111 61 -151 0 -32 16 -48 33 -31 6 6 19 11 28 11 10
0 25 8 34 17 16 15 17 52 14 397 l-4 381 25 -2 c92 -5 437 -36 545 -49 219
-25 305 -34 430 -44 66 -6 177 -16 248 -23 70 -7 127 -9 127 -5 0 5 -3 8 -7 8
-5 0 -39 5 -78 10 -38 5 -101 11 -140 15 -38 3 -135 13 -215 21 -80 7 -248 23
-375 34 -126 11 -268 24 -315 29 -47 6 -141 15 -210 21 -69 6 -136 13 -149 14
-16 3 -25 -2 -28 -14z m73 -23 c19 7 52 -6 37 -15 -7 -5 -13 -124 -17 -372 -4
-226 -10 -366 -16 -368 -6 -2 -12 2 -15 10 -2 7 -6 184 -7 392 -2 209 -2 373
0 364 2 -10 9 -15 18 -11z"/>
<path d="M6657 2320 c-4 -30 -6 -86 -5 -125 l3 -70 -50 -6 -50 -6 55 -3 c30
-1 65 -3 77 -3 12 -1 21 -3 21 -6 -1 -4 2 -18 6 -34 5 -17 4 -33 -4 -42 -7 -8
-9 -26 -5 -43 3 -16 0 -42 -7 -58 -14 -35 -17 -56 -7 -69 11 -15 5 -70 -9 -88
-10 -12 -10 -16 0 -20 7 -2 10 -7 7 -11 -4 -4 -110 19 -236 50 l-229 57 -29
-19 -29 -19 57 -6 c31 -4 69 -11 84 -18 29 -11 196 -56 273 -72 25 -6 54 -14
65 -19 19 -8 107 -32 248 -66 56 -14 60 -14 95 8 l37 23 -53 7 c-67 10 -101
26 -81 39 10 6 11 9 2 9 -8 0 -13 13 -13 30 0 23 4 30 20 30 26 0 25 12 -1 28
-15 10 -18 16 -10 26 7 9 7 16 -2 25 -9 9 -9 14 3 21 8 5 11 12 7 16 -4 4 -2
13 4 21 6 7 7 13 2 13 -5 0 -10 6 -11 13 -1 6 -3 28 -5 47 -2 19 -7 45 -11 56
-3 12 -2 33 3 48 7 16 7 34 1 48 -6 15 -9 18 -9 7 -1 -14 -15 -16 -101 -15
l-99 1 -3 125 c-3 107 -4 117 -11 70z"/>
<path d="M5486 1813 c-7 -7 -69 -11 -228 -15 -49 -1 -67 -21 -28 -31 30 -8 24
-25 -17 -49 l-36 -22 34 -28 c18 -15 36 -28 40 -28 4 0 20 -13 37 -28 32 -30
124 -59 115 -37 -8 23 35 52 70 46 8 -1 31 49 29 62 -1 4 2 7 7 7 6 0 7 -16 4
-35 -3 -19 -2 -35 3 -35 25 -1 35 -17 25 -42 -7 -20 -19 -28 -50 -33 -44 -7
-47 -30 -6 -41 27 -7 99 11 123 31 107 86 143 118 140 127 -2 6 -19 16 -38 22
-18 6 -35 17 -38 24 -2 7 2 10 12 6 11 -4 19 2 25 19 6 14 18 30 28 36 17 10
17 10 -2 11 -11 1 -66 3 -122 6 l-103 5 -1 -48 -1 -48 -16 48 c-14 42 -14 50
-2 57 8 5 12 11 9 14 -3 4 -9 3 -13 -1z"/>
<path d="M6093 1765 c-54 -23 -40 -51 16 -35 32 9 129 -3 161 -19 8 -4 40 -14
70 -21 68 -16 206 -58 240 -72 37 -15 160 -49 201 -55 20 -3 39 0 43 5 6 10 0
12 -209 67 -150 39 -259 70 -397 116 -48 16 -89 29 -90 29 -2 -1 -18 -7 -35
-15z"/>
<path d="M9140 1747 c0 -13 -4 -27 -9 -32 -5 -6 -12 -34 -15 -63 -3 -30 -9
-58 -12 -64 -10 -15 16 -64 39 -76 12 -6 39 -13 60 -17 27 -4 41 -13 49 -30
15 -34 61 -31 96 7 15 15 32 28 38 28 7 0 12 10 12 23 0 12 5 59 12 105 8 50
10 86 4 92 -8 7 -230 50 -263 50 -6 0 -11 -10 -11 -23z"/>
<path d="M6011 1701 c-11 -11 -22 -17 -25 -13 -3 3 -6 -1 -6 -9 0 -11 16 -14
68 -14 50 0 97 -10 187 -38 66 -21 138 -43 160 -50 22 -6 42 -14 45 -17 3 -3
37 -16 75 -29 39 -12 81 -27 95 -33 17 -7 34 -6 55 2 l30 12 -30 12 c-16 7
-73 23 -125 36 -153 36 -456 133 -474 151 -15 14 -34 11 -55 -10z"/>
<path d="M9470 1618 c0 -5 -11 -6 -25 -2 -20 5 -25 2 -25 -13 0 -17 15 -23
113 -41 61 -12 138 -25 170 -28 49 -6 58 -10 63 -29 3 -13 0 -33 -6 -45 -10
-18 -8 -27 11 -54 24 -35 56 -51 127 -62 24 -4 57 -18 73 -31 16 -14 34 -21
40 -17 6 3 15 0 20 -7 6 -10 9 -10 9 -2 0 7 13 27 29 45 26 30 29 42 35 135 9
122 17 115 -149 143 -163 28 -159 28 -179 -25 -16 -41 -36 -60 -36 -35 0 6 -7
10 -15 10 -8 0 -14 5 -12 12 1 6 -14 15 -33 20 -62 17 -210 35 -210 26z"/>
</g>
</svg>
